<?xml version="1.0" standalone="yes"?>
<!DOCTYPE svg PUBLIC "-//W3C//DTD SVG 1.1//EN"
 "http://www.w3.org/Graphics/SVG/1.1/DTD/svg11.dtd">
<svg xmlns="http://www.w3.org/2000/svg" version="1.1"
  width="100%" height="100%" viewBox="0 0 1024 768"
  style="fill: none; font-family: Helvetica;
 font: Helvetica;
">

<!-- Creator: NGspice -->

<rect x="0" y="0" width="1024" height="768" fill="black" stroke="none"/>
<text stroke="none" fill="white" font-size="16" x="358" y="752">
v-sweep
</text>
<text stroke="none" fill="white" font-size="16" x="10" y="16">
dc1: ** sch_path: /home/ee24s053/ee5311-2025/tut1/pmos/expt1.sch
</text>
<path stroke="white" d="M60 720l0 -670"/>
<text stroke="none" fill="white" font-size="16" x="45" y="728">
0.0
</text>
<path stroke="white" stroke-dasharray="1,2" d="M160 720l0 -670"/>
<text stroke="none" fill="white" font-size="16" x="145" y="728">
0.2
</text>
<path stroke="white" stroke-dasharray="1,2" d="M260 720l0 -670"/>
<text stroke="none" fill="white" font-size="16" x="245" y="728">
0.4
</text>
<path stroke="white" stroke-dasharray="1,2" d="M360 720l0 -670"/>
<text stroke="none" fill="white" font-size="16" x="345" y="728">
0.6
</text>
<path stroke="white" stroke-dasharray="1,2" d="M460 720l0 -670"/>
<text stroke="none" fill="white" font-size="16" x="445" y="728">
0.8
</text>
<path stroke="white" stroke-dasharray="1,2" d="M560 720l0 -670"/>
<text stroke="none" fill="white" font-size="16" x="545" y="728">
1.0
</text>
<path stroke="white" stroke-dasharray="1,2" d="M660 720l0 -670"/>
<text stroke="none" fill="white" font-size="16" x="645" y="728">
1.2
</text>
<path stroke="white" stroke-dasharray="1,2" d="M760 720l0 -670"/>
<text stroke="none" fill="white" font-size="16" x="745" y="728">
1.4
</text>
<path stroke="white" stroke-dasharray="1,2" d="M860 720l0 -670"/>
<text stroke="none" fill="white" font-size="16" x="845" y="728">
1.6
</text>
<path stroke="white" stroke-dasharray="1,2" d="M960 720l0 -670"/>
<text stroke="none" fill="white" font-size="16" x="945" y="728">
1.8
</text>
<text stroke="none" fill="white" font-size="16" x="614" y="752">
V
</text>
<path stroke="white" d="M60 720l900 0"/>
<text stroke="none" fill="white" font-size="16" x="18" y="728">
-0.0
</text>
<path stroke="white" stroke-dasharray="1,2" d="M60 653l900 0"/>
<text stroke="none" fill="white" font-size="16" x="18" y="661">
10.0
</text>
<path stroke="white" stroke-dasharray="1,2" d="M60 586l900 0"/>
<text stroke="none" fill="white" font-size="16" x="18" y="594">
20.0
</text>
<path stroke="white" stroke-dasharray="1,2" d="M60 519l900 0"/>
<text stroke="none" fill="white" font-size="16" x="18" y="527">
30.0
</text>
<path stroke="white" stroke-dasharray="1,2" d="M60 452l900 0"/>
<text stroke="none" fill="white" font-size="16" x="18" y="460">
40.0
</text>
<path stroke="white" stroke-dasharray="1,2" d="M60 385l900 0"/>
<text stroke="none" fill="white" font-size="16" x="18" y="393">
50.0
</text>
<path stroke="white" stroke-dasharray="1,2" d="M60 318l900 0"/>
<text stroke="none" fill="white" font-size="16" x="18" y="326">
60.0
</text>
<path stroke="white" stroke-dasharray="1,2" d="M60 251l900 0"/>
<text stroke="none" fill="white" font-size="16" x="18" y="259">
70.0
</text>
<path stroke="white" stroke-dasharray="1,2" d="M60 184l900 0"/>
<text stroke="none" fill="white" font-size="16" x="18" y="192">
80.0
</text>
<path stroke="white" stroke-dasharray="1,2" d="M60 117l900 0"/>
<text stroke="none" fill="white" font-size="16" x="18" y="125">
90.0
</text>
<path stroke="white" stroke-dasharray="1,2" d="M60 50l900 0"/>
<text stroke="none" fill="white" font-size="16" x="8" y="58">
100.0
</text>
<text stroke="none" fill="white" font-size="16" x="10" y="32">
pA
</text>
<path stroke="red" d="M450 23l45 0"/>
<text stroke="none" fill="white" font-size="16" x="505" y="32">
-i(Vin1)
</text>
<path stroke="red" d="M60 720l5 -4 10 -6 5 -2 5 -1 5 -2 35 -7 5 -2 15 -3 5 -2 5 -1 5 -2 5 -1 5 -2 5 -1 10 -4 5 -1 70 -28 5 -3 20 -8 5 -3 15 -6 5 -3 10 -4 5 -3 10 -4 5 -3 10 -4 5 -3 5 -2 5 -3 10 -4 5 -3 5 -2 5 -3 5 -2 5 -3 5 -2 5 -3 5 -2 5 -3"/>
<path stroke="red" d="M420 575l5 -2 10 -6 5 -2 10 -6 5 -2 10 -6 5 -2 10 -6 5 -2 20 -12 5 -2 75 -45 5 -4 20 -12 5 -4 10 -6 5 -4 10 -6 5 -4 5 -3 5 -4 5 -3 5 -4 5 -3 10 -8 5 -3 10 -8 5 -3 55 -44 5 -5 10 -8 5 -5 5 -4 5 -5 5 -4 10 -10 5 -4 15 -15"/>
<path stroke="red" d="M820 299l5 -6 10 -10 5 -6 5 -5 10 -12 5 -5 5 -6 5 -7 10 -12 10 -14 5 -6 5 -7 5 -8 5 -7 5 -8 5 -7 10 -16 5 -9 5 -8 15 -27 5 -10"/>
</svg>
