<?xml version="1.0" standalone="yes"?>
<!DOCTYPE svg PUBLIC "-//W3C//DTD SVG 1.1//EN"
 "http://www.w3.org/Graphics/SVG/1.1/DTD/svg11.dtd">
<svg xmlns="http://www.w3.org/2000/svg" version="1.1"
  width="100%" height="100%" viewBox="0 0 1024 768"
  style="fill: none; font-family: Helvetica;
 font: Helvetica;
">

<!-- Creator: NGspice -->

<rect x="0" y="0" width="1024" height="768" fill="black" stroke="none"/>
<text stroke="none" fill="white" font-size="16" x="358" y="752">
v-sweep
</text>
<text stroke="none" fill="white" font-size="16" x="10" y="16">
dc1: ** sch_path: /home/ee24s053/ee5311-2025/tut2/expt2_0/expt2_0.sch
</text>
<path stroke="white" d="M60 720l0 -663"/>
<text stroke="none" fill="white" font-size="16" x="45" y="728">
0.0
</text>
<path stroke="white" stroke-dasharray="1,2" d="M160 720l0 -663"/>
<text stroke="none" fill="white" font-size="16" x="145" y="728">
0.2
</text>
<path stroke="white" stroke-dasharray="1,2" d="M260 720l0 -663"/>
<text stroke="none" fill="white" font-size="16" x="245" y="728">
0.4
</text>
<path stroke="white" stroke-dasharray="1,2" d="M360 720l0 -663"/>
<text stroke="none" fill="white" font-size="16" x="345" y="728">
0.6
</text>
<path stroke="white" stroke-dasharray="1,2" d="M460 720l0 -663"/>
<text stroke="none" fill="white" font-size="16" x="445" y="728">
0.8
</text>
<path stroke="white" stroke-dasharray="1,2" d="M560 720l0 -663"/>
<text stroke="none" fill="white" font-size="16" x="545" y="728">
1.0
</text>
<path stroke="white" stroke-dasharray="1,2" d="M660 720l0 -663"/>
<text stroke="none" fill="white" font-size="16" x="645" y="728">
1.2
</text>
<path stroke="white" stroke-dasharray="1,2" d="M760 720l0 -663"/>
<text stroke="none" fill="white" font-size="16" x="745" y="728">
1.4
</text>
<path stroke="white" stroke-dasharray="1,2" d="M860 720l0 -663"/>
<text stroke="none" fill="white" font-size="16" x="845" y="728">
1.6
</text>
<path stroke="white" stroke-dasharray="1,2" d="M960 720l0 -663"/>
<text stroke="none" fill="white" font-size="16" x="945" y="728">
1.8
</text>
<text stroke="none" fill="white" font-size="16" x="614" y="752">
V
</text>
<path stroke="white" stroke-dasharray="1,2" d="M60 720l900 0"/>
<text stroke="none" fill="white" font-size="16" x="8" y="728">
-13.0
</text>
<path stroke="white" stroke-dasharray="1,2" d="M60 669l900 0"/>
<text stroke="none" fill="white" font-size="16" x="8" y="677">
-12.0
</text>
<path stroke="white" stroke-dasharray="1,2" d="M60 618l900 0"/>
<text stroke="none" fill="white" font-size="16" x="8" y="626">
-11.0
</text>
<path stroke="white" stroke-dasharray="1,2" d="M60 567l900 0"/>
<text stroke="none" fill="white" font-size="16" x="8" y="575">
-10.0
</text>
<path stroke="white" stroke-dasharray="1,2" d="M60 516l900 0"/>
<text stroke="none" fill="white" font-size="16" x="18" y="524">
-9.0
</text>
<path stroke="white" stroke-dasharray="1,2" d="M60 465l900 0"/>
<text stroke="none" fill="white" font-size="16" x="18" y="473">
-8.0
</text>
<path stroke="white" stroke-dasharray="1,2" d="M60 414l900 0"/>
<text stroke="none" fill="white" font-size="16" x="18" y="422">
-7.0
</text>
<path stroke="white" stroke-dasharray="1,2" d="M60 363l900 0"/>
<text stroke="none" fill="white" font-size="16" x="18" y="371">
-6.0
</text>
<path stroke="white" stroke-dasharray="1,2" d="M60 312l900 0"/>
<text stroke="none" fill="white" font-size="16" x="18" y="320">
-5.0
</text>
<path stroke="white" stroke-dasharray="1,2" d="M60 261l900 0"/>
<text stroke="none" fill="white" font-size="16" x="18" y="269">
-4.0
</text>
<path stroke="white" stroke-dasharray="1,2" d="M60 210l900 0"/>
<text stroke="none" fill="white" font-size="16" x="18" y="218">
-3.0
</text>
<path stroke="white" stroke-dasharray="1,2" d="M60 159l900 0"/>
<text stroke="none" fill="white" font-size="16" x="18" y="167">
-2.0
</text>
<path stroke="white" stroke-dasharray="1,2" d="M60 108l900 0"/>
<text stroke="none" fill="white" font-size="16" x="18" y="116">
-1.0
</text>
<path stroke="white" d="M60 57l900 0"/>
<text stroke="none" fill="white" font-size="16" x="28" y="65">
0.0
</text>
<text stroke="none" fill="white" font-size="16" x="10" y="32">
V
</text>
<path stroke="red" d="M450 23l45 0"/>
<text stroke="none" fill="white" font-size="16" x="505" y="32">
deriv_vout
</text>
<path stroke="red" d="M60 57l260 0 5 1 20 0 5 1 5 0 30 6 10 4 10 6 10 8 10 10 5 7 5 8 5 10 5 12 5 15 5 21 5 30 5 49 5 101 5 160 5 131 5 47 5 9 5 -1 5 -6 5 -10 5 -13 5 -19 5 -28 5 -52 5 -101 5 -139 5 -108 5 -55 5 -27 5 -16 5 -11 5 -8 5 -6 10 -8"/>
<path stroke="red" d="M580 85l10 -6 20 -8 10 -2 5 -2 10 -2 5 0 15 -3 5 0 5 -1 5 0 5 -1 10 0 5 -1 10 0 5 -1 30 0 5 -1 220 0"/>
</svg>
