<?xml version="1.0" standalone="yes"?>
<!DOCTYPE svg PUBLIC "-//W3C//DTD SVG 1.1//EN"
 "http://www.w3.org/Graphics/SVG/1.1/DTD/svg11.dtd">
<svg xmlns="http://www.w3.org/2000/svg" version="1.1"
  width="100%" height="100%" viewBox="0 0 1024 768"
  style="fill: none; font-family: Helvetica;
 font: Helvetica;
">

<!-- Creator: NGspice -->

<rect x="0" y="0" width="1024" height="768" fill="black" stroke="none"/>
<text stroke="none" fill="white" font-size="16" x="358" y="752">
v-sweep
</text>
<text stroke="none" fill="white" font-size="16" x="10" y="16">
dc10: ** sch_path: /home/ee24s053/ee5311-2025/tut2/expt2_1/expt2_1.sch
</text>
<path stroke="white" d="M50 720l0 -670"/>
<text stroke="none" fill="white" font-size="16" x="35" y="728">
0.0
</text>
<path stroke="white" stroke-dasharray="1,2" d="M142 720l0 -670"/>
<text stroke="none" fill="white" font-size="16" x="127" y="728">
0.2
</text>
<path stroke="white" stroke-dasharray="1,2" d="M234 720l0 -670"/>
<text stroke="none" fill="white" font-size="16" x="219" y="728">
0.4
</text>
<path stroke="white" stroke-dasharray="1,2" d="M326 720l0 -670"/>
<text stroke="none" fill="white" font-size="16" x="311" y="728">
0.6
</text>
<path stroke="white" stroke-dasharray="1,2" d="M418 720l0 -670"/>
<text stroke="none" fill="white" font-size="16" x="403" y="728">
0.8
</text>
<path stroke="white" stroke-dasharray="1,2" d="M510 720l0 -670"/>
<text stroke="none" fill="white" font-size="16" x="495" y="728">
1.0
</text>
<path stroke="white" stroke-dasharray="1,2" d="M602 720l0 -670"/>
<text stroke="none" fill="white" font-size="16" x="587" y="728">
1.2
</text>
<path stroke="white" stroke-dasharray="1,2" d="M694 720l0 -670"/>
<text stroke="none" fill="white" font-size="16" x="679" y="728">
1.4
</text>
<path stroke="white" stroke-dasharray="1,2" d="M786 720l0 -670"/>
<text stroke="none" fill="white" font-size="16" x="771" y="728">
1.6
</text>
<path stroke="white" stroke-dasharray="1,2" d="M878 720l0 -670"/>
<text stroke="none" fill="white" font-size="16" x="863" y="728">
1.8
</text>
<path stroke="white" stroke-dasharray="1,2" d="M970 720l0 -670"/>
<text stroke="none" fill="white" font-size="16" x="955" y="728">
2.0
</text>
<text stroke="none" fill="white" font-size="16" x="614" y="752">
V
</text>
<path stroke="white" d="M50 720l920 0"/>
<text stroke="none" fill="white" font-size="16" x="18" y="728">
0.0
</text>
<path stroke="white" stroke-dasharray="1,2" d="M50 653l920 0"/>
<text stroke="none" fill="white" font-size="16" x="18" y="661">
0.2
</text>
<path stroke="white" stroke-dasharray="1,2" d="M50 586l920 0"/>
<text stroke="none" fill="white" font-size="16" x="18" y="594">
0.4
</text>
<path stroke="white" stroke-dasharray="1,2" d="M50 519l920 0"/>
<text stroke="none" fill="white" font-size="16" x="18" y="527">
0.6
</text>
<path stroke="white" stroke-dasharray="1,2" d="M50 452l920 0"/>
<text stroke="none" fill="white" font-size="16" x="18" y="460">
0.8
</text>
<path stroke="white" stroke-dasharray="1,2" d="M50 385l920 0"/>
<text stroke="none" fill="white" font-size="16" x="18" y="393">
1.0
</text>
<path stroke="white" stroke-dasharray="1,2" d="M50 318l920 0"/>
<text stroke="none" fill="white" font-size="16" x="18" y="326">
1.2
</text>
<path stroke="white" stroke-dasharray="1,2" d="M50 251l920 0"/>
<text stroke="none" fill="white" font-size="16" x="18" y="259">
1.4
</text>
<path stroke="white" stroke-dasharray="1,2" d="M50 184l920 0"/>
<text stroke="none" fill="white" font-size="16" x="18" y="192">
1.6
</text>
<path stroke="white" stroke-dasharray="1,2" d="M50 117l920 0"/>
<text stroke="none" fill="white" font-size="16" x="18" y="125">
1.8
</text>
<path stroke="white" stroke-dasharray="1,2" d="M50 50l920 0"/>
<text stroke="none" fill="white" font-size="16" x="18" y="58">
2.0
</text>
<text stroke="none" fill="white" font-size="16" x="10" y="32">
V
</text>
<path stroke="red" d="M460 23l46 0"/>
<text stroke="none" fill="white" font-size="16" x="516" y="32">
dc1.v(vout)
</text>
<path stroke="red" d="M50 653l60 0 4 1 10 0 4 1 5 1 4 2 5 3"/>
<path stroke="blue" d="M50 23l46 0"/>
<text stroke="none" fill="white" font-size="16" x="106" y="32">
dc2.v(vout)
</text>
<path stroke="blue" d="M50 586l106 0 4 1 5 0 5 1 4 1 5 3 4 6 5 25 5 45 4 33 5 11 4 4 5 2 5 1 4 0 5 1 9 0"/>
<path stroke="#FFA500" d="M460 39l46 0"/>
<text stroke="none" fill="white" font-size="16" x="516" y="48">
dc3.v(vout)
</text>
<path stroke="#FFA500" d="M50 519l138 0 5 1 4 0 5 1 4 1 5 1 5 3 4 8 5 39 4 53 5 45 5 32 4 9 5 4 4 1 10 2 4 0 5 1 55 0"/>
<path stroke="green" d="M50 39l46 0"/>
<text stroke="none" fill="white" font-size="16" x="106" y="48">
dc4.v(vout)
</text>
<path stroke="green" d="M50 452l166 0 4 1 9 0 10 2 4 2 5 4 4 14 5 53 5 58 4 51 5 43 4 25 5 7 5 4 4 1 5 1 4 1 5 0 5 1 110 0"/>
<path stroke="#FFC0C5" d="M460 55l46 0"/>
<text stroke="none" fill="white" font-size="16" x="516" y="64">
dc5.v(vout)
</text>
<path stroke="#FFC0C5" d="M50 385l193 0 5 1 9 0 5 1 4 1 5 2 4 3 5 8 5 43 4 64 5 61 4 54 5 45 5 32 4 10 5 4 4 2 5 2 5 0 4 1 9 0 5 1 161 0"/>
<path stroke="#A52A2A" d="M50 55l46 0"/>
<text stroke="none" fill="white" font-size="16" x="106" y="64">
dc6.v(vout)
</text>
<path stroke="#A52A2A" d="M50 318l221 0 4 1 10 0 4 1 5 1 4 2 5 2 5 4 4 11 5 53 4 70 5 66 5 60 4 51 5 41 4 23 5 7 5 3 4 2 5 1 4 1 5 1 14 0 4 1 212 0"/>
<path stroke="#F0E68C" d="M460 71l46 0"/>
<text stroke="none" fill="white" font-size="16" x="516" y="80">
dc7.v(vout)
</text>
<path stroke="#F0E68C" d="M50 251l239 0 5 1 9 0 5 1 4 0 5 1 4 1 10 4 4 3 5 5 4 9 5 26 5 68 4 71 5 67 4 60 5 53 5 45 4 31 5 10 4 4 5 3 5 2 4 1 5 0 4 1 5 1 18 0 5 1 253 0"/>
<path stroke="#DDA0DD" d="M50 71l46 0"/>
<text stroke="none" fill="white" font-size="16" x="106" y="80">
dc8.v(vout)
</text>
<path stroke="#DDA0DD" d="M50 184l248 0 5 1 14 0 4 1 5 0 5 1 4 1 5 1 4 2 5 1 5 3 4 3 5 4 4 5 5 7 5 10 4 20 5 48 4 66 5 66 5 63 4 59 5 54 4 48 5 35 5 15 4 6 5 4 4 2 10 4 4 1 5 1 4 1 5 0 5 1 9 0 4 1 23 0 5 1 276 0"/>
<path stroke="#DA70D6" d="M460 87l46 0"/>
<text stroke="none" fill="white" font-size="16" x="516" y="96">
dc9.v(vout)
</text>
<path stroke="#DA70D6" d="M50 117l253 0 5 1 13 0 5 1 5 0 4 1 5 0 4 1 10 2 4 2 5 2 4 2 10 6 4 4 5 4 4 6 5 7 5 9 4 11 5 15 4 27 5 47 5 59 4 60 5 60 4 58 5 55 5 51 4 43 5 26 4 11 5 7 5 4 4 3 5 3 4 2 5 2 5 1 4 1 5 2 4 0 10 2 4 1 5 0 4 1 10 0 4 1"/>
<path stroke="#DA70D6" d="M542 718l9 0 5 1 32 0 5 1 285 0"/>
<path stroke="#EE82EE" d="M50 87l46 0"/>
<text stroke="none" fill="white" font-size="16" x="106" y="96">
dc10.v(vout)
</text>
<path stroke="#EE82EE" d="M50 50l253 0 5 1 18 0 5 1 4 0 5 1 4 0 10 2 4 1 5 1 4 2 10 4 4 3 5 2 4 4 10 8 4 5 5 6 4 7 5 7 5 9 4 11 5 13 4 17 5 24 5 38 4 49 5 53 4 55 5 55 5 54 4 52 5 48 4 42 5 30 5 15 4 8 5 6 4 5 10 6 4 3 5 2 4 2 5 2 5 1 4 1 5 2"/>
<path stroke="#EE82EE" d="M547 708l4 1 10 2 4 1 5 0 4 1 5 1 5 0 4 1 5 0 4 1 5 0 5 1 9 0 4 1 14 0 5 1 32 0 5 1 294 0"/>
</svg>
