<?xml version="1.0" standalone="yes"?>
<!DOCTYPE svg PUBLIC "-//W3C//DTD SVG 1.1//EN"
 "http://www.w3.org/Graphics/SVG/1.1/DTD/svg11.dtd">
<svg xmlns="http://www.w3.org/2000/svg" version="1.1"
  width="100%" height="100%" viewBox="0 0 1024 768"
  style="fill: none; font-family: Helvetica;
 font: Helvetica;
">

<!-- Creator: NGspice -->

<rect x="0" y="0" width="1024" height="768" fill="black" stroke="none"/>
<text stroke="none" fill="white" font-size="16" x="358" y="752">
v-sweep
</text>
<text stroke="none" fill="white" font-size="16" x="10" y="16">
dc1: ** sch_path: /home/ee24s053/ee5311-2025/tut2/expt1/expt1.sch
</text>
<path stroke="white" d="M50 720l0 -672"/>
<text stroke="none" fill="white" font-size="16" x="35" y="728">
0.0
</text>
<path stroke="white" stroke-dasharray="1,2" d="M152 720l0 -672"/>
<text stroke="none" fill="white" font-size="16" x="137" y="728">
0.2
</text>
<path stroke="white" stroke-dasharray="1,2" d="M254 720l0 -672"/>
<text stroke="none" fill="white" font-size="16" x="239" y="728">
0.4
</text>
<path stroke="white" stroke-dasharray="1,2" d="M356 720l0 -672"/>
<text stroke="none" fill="white" font-size="16" x="341" y="728">
0.6
</text>
<path stroke="white" stroke-dasharray="1,2" d="M458 720l0 -672"/>
<text stroke="none" fill="white" font-size="16" x="443" y="728">
0.8
</text>
<path stroke="white" stroke-dasharray="1,2" d="M560 720l0 -672"/>
<text stroke="none" fill="white" font-size="16" x="545" y="728">
1.0
</text>
<path stroke="white" stroke-dasharray="1,2" d="M662 720l0 -672"/>
<text stroke="none" fill="white" font-size="16" x="647" y="728">
1.2
</text>
<path stroke="white" stroke-dasharray="1,2" d="M764 720l0 -672"/>
<text stroke="none" fill="white" font-size="16" x="749" y="728">
1.4
</text>
<path stroke="white" stroke-dasharray="1,2" d="M866 720l0 -672"/>
<text stroke="none" fill="white" font-size="16" x="851" y="728">
1.6
</text>
<path stroke="white" stroke-dasharray="1,2" d="M968 720l0 -672"/>
<text stroke="none" fill="white" font-size="16" x="953" y="728">
1.8
</text>
<text stroke="none" fill="white" font-size="16" x="614" y="752">
V
</text>
<path stroke="white" stroke-dasharray="1,2" d="M50 720l918 0"/>
<text stroke="none" fill="white" font-size="16" x="8" y="728">
-8.0
</text>
<path stroke="white" stroke-dasharray="1,2" d="M50 636l918 0"/>
<text stroke="none" fill="white" font-size="16" x="8" y="644">
-7.0
</text>
<path stroke="white" stroke-dasharray="1,2" d="M50 552l918 0"/>
<text stroke="none" fill="white" font-size="16" x="8" y="560">
-6.0
</text>
<path stroke="white" stroke-dasharray="1,2" d="M50 468l918 0"/>
<text stroke="none" fill="white" font-size="16" x="8" y="476">
-5.0
</text>
<path stroke="white" stroke-dasharray="1,2" d="M50 384l918 0"/>
<text stroke="none" fill="white" font-size="16" x="8" y="392">
-4.0
</text>
<path stroke="white" stroke-dasharray="1,2" d="M50 300l918 0"/>
<text stroke="none" fill="white" font-size="16" x="8" y="308">
-3.0
</text>
<path stroke="white" stroke-dasharray="1,2" d="M50 216l918 0"/>
<text stroke="none" fill="white" font-size="16" x="8" y="224">
-2.0
</text>
<path stroke="white" stroke-dasharray="1,2" d="M50 132l918 0"/>
<text stroke="none" fill="white" font-size="16" x="8" y="140">
-1.0
</text>
<path stroke="white" d="M50 48l918 0"/>
<text stroke="none" fill="white" font-size="16" x="18" y="56">
0.0
</text>
<text stroke="none" fill="white" font-size="16" x="10" y="32">
V
</text>
<path stroke="red" d="M459 23l45 0"/>
<text stroke="none" fill="white" font-size="16" x="514" y="32">
deriv_vout
</text>
<path stroke="red" d="M50 48l245 0 5 1 15 0 5 1 11 0 25 5 20 8 6 3 5 4 5 3 5 4 15 15 15 18 6 7 10 14 5 8 5 7 25 40 6 8 15 24 5 9 5 8 10 18 10 20 6 11 5 12 5 13 5 14 5 17 5 19 5 22 5 27 5 33 5 43 6 52 5 60 5 55 5 36 5 14 5 -8 5 -28 5 -50 5 -73"/>
<path stroke="red" d="M626 542l5 -92 6 -94 5 -80 5 -57 5 -40 5 -27 5 -17 5 -13 5 -10 5 -7 5 -6 6 -5 10 -8 5 -3 5 -2 5 -3 5 -2 5 -1 10 -4 6 -1 35 -7 5 0 5 -1 6 -1 5 0 5 -1 5 0 5 -1 10 0 5 -1 5 0 5 -1 11 0 5 -1 15 0 5 -1 21 0 5 -1 20 0 5 -1 36 0"/>
<path stroke="red" d="M958 53l5 -1 5 0"/>
</svg>
