<?xml version="1.0" standalone="yes"?>
<!DOCTYPE svg PUBLIC "-//W3C//DTD SVG 1.1//EN"
 "http://www.w3.org/Graphics/SVG/1.1/DTD/svg11.dtd">
<svg xmlns="http://www.w3.org/2000/svg" version="1.1"
  width="100%" height="100%" viewBox="0 0 1024 768"
  style="fill: none; font-family: Helvetica;
 font: Helvetica;
">

<!-- Creator: NGspice -->

<rect x="0" y="0" width="1024" height="768" fill="black" stroke="none"/>
<text stroke="none" fill="white" font-size="16" x="358" y="752">
v-sweep
</text>
<text stroke="none" fill="white" font-size="16" x="10" y="16">
dc1: ** sch_path: /home/ee24s053/ee5311-2025/tut2/expt1/expt1.sch
</text>
<path stroke="white" d="M50 720l0 -666"/>
<text stroke="none" fill="white" font-size="16" x="35" y="728">
0.0
</text>
<path stroke="white" stroke-dasharray="1,2" d="M152 720l0 -666"/>
<text stroke="none" fill="white" font-size="16" x="137" y="728">
0.2
</text>
<path stroke="white" stroke-dasharray="1,2" d="M254 720l0 -666"/>
<text stroke="none" fill="white" font-size="16" x="239" y="728">
0.4
</text>
<path stroke="white" stroke-dasharray="1,2" d="M356 720l0 -666"/>
<text stroke="none" fill="white" font-size="16" x="341" y="728">
0.6
</text>
<path stroke="white" stroke-dasharray="1,2" d="M458 720l0 -666"/>
<text stroke="none" fill="white" font-size="16" x="443" y="728">
0.8
</text>
<path stroke="white" stroke-dasharray="1,2" d="M560 720l0 -666"/>
<text stroke="none" fill="white" font-size="16" x="545" y="728">
1.0
</text>
<path stroke="white" stroke-dasharray="1,2" d="M662 720l0 -666"/>
<text stroke="none" fill="white" font-size="16" x="647" y="728">
1.2
</text>
<path stroke="white" stroke-dasharray="1,2" d="M764 720l0 -666"/>
<text stroke="none" fill="white" font-size="16" x="749" y="728">
1.4
</text>
<path stroke="white" stroke-dasharray="1,2" d="M866 720l0 -666"/>
<text stroke="none" fill="white" font-size="16" x="851" y="728">
1.6
</text>
<path stroke="white" stroke-dasharray="1,2" d="M968 720l0 -666"/>
<text stroke="none" fill="white" font-size="16" x="953" y="728">
1.8
</text>
<text stroke="none" fill="white" font-size="16" x="614" y="752">
V
</text>
<path stroke="white" d="M50 720l918 0"/>
<text stroke="none" fill="white" font-size="16" x="18" y="728">
0.0
</text>
<path stroke="white" stroke-dasharray="1,2" d="M50 646l918 0"/>
<text stroke="none" fill="white" font-size="16" x="18" y="654">
0.2
</text>
<path stroke="white" stroke-dasharray="1,2" d="M50 572l918 0"/>
<text stroke="none" fill="white" font-size="16" x="18" y="580">
0.4
</text>
<path stroke="white" stroke-dasharray="1,2" d="M50 498l918 0"/>
<text stroke="none" fill="white" font-size="16" x="18" y="506">
0.6
</text>
<path stroke="white" stroke-dasharray="1,2" d="M50 424l918 0"/>
<text stroke="none" fill="white" font-size="16" x="18" y="432">
0.8
</text>
<path stroke="white" stroke-dasharray="1,2" d="M50 350l918 0"/>
<text stroke="none" fill="white" font-size="16" x="18" y="358">
1.0
</text>
<path stroke="white" stroke-dasharray="1,2" d="M50 276l918 0"/>
<text stroke="none" fill="white" font-size="16" x="18" y="284">
1.2
</text>
<path stroke="white" stroke-dasharray="1,2" d="M50 202l918 0"/>
<text stroke="none" fill="white" font-size="16" x="18" y="210">
1.4
</text>
<path stroke="white" stroke-dasharray="1,2" d="M50 128l918 0"/>
<text stroke="none" fill="white" font-size="16" x="18" y="136">
1.6
</text>
<path stroke="white" stroke-dasharray="1,2" d="M50 54l918 0"/>
<text stroke="none" fill="white" font-size="16" x="18" y="62">
1.8
</text>
<text stroke="none" fill="white" font-size="16" x="10" y="32">
V
</text>
<path stroke="red" d="M459 23l45 0"/>
<text stroke="none" fill="white" font-size="16" x="514" y="32">
dc.v(vin)
</text>
<path stroke="red" d="M50 720l5 -4 5 -3 10 -8 6 -4 5 -3 10 -8 5 -3 10 -8 5 -3 10 -8 6 -4 5 -3 10 -8 5 -3 10 -8 5 -3 10 -8 6 -4 5 -3 10 -8 5 -3 10 -8 5 -3 10 -8 6 -4 5 -3 10 -8 5 -3 10 -8 5 -3 10 -8 6 -4 5 -3 10 -8 5 -3 10 -8 5 -3 10 -8 6 -4 5 -3"/>
<path stroke="red" d="M336 513l10 -8 5 -3 10 -8 5 -3 10 -8 6 -4 5 -3 10 -8 5 -3 10 -8 5 -3 10 -8 6 -4 5 -3 10 -8 5 -3 10 -8 5 -3 10 -8 6 -4 5 -3 10 -8 5 -3 10 -8 5 -3 10 -8 6 -4 5 -3 10 -8 5 -3 10 -8 5 -3 10 -8 6 -4 5 -3 10 -8 5 -3 10 -8 5 -3"/>
<path stroke="red" d="M621 306l10 -8 6 -4 5 -3 10 -8 5 -3 10 -8 5 -3 10 -8 6 -4 5 -3 10 -8 5 -3 10 -8 5 -3 10 -8 6 -4 5 -3 10 -8 5 -3 10 -8 5 -3 10 -8 6 -4 5 -3 10 -8 5 -3 10 -8 5 -3 10 -8 6 -4 5 -3 10 -8 5 -3 10 -8 5 -3 10 -8 6 -4 5 -3 10 -8"/>
<path stroke="red" d="M907 98l5 -3 10 -8 5 -3 10 -8 6 -4 5 -3 10 -8 5 -3 5 -4"/>
<path stroke="blue" d="M50 23l45 0"/>
<text stroke="none" fill="white" font-size="16" x="105" y="32">
dc.v(vout)
</text>
<path stroke="blue" d="M50 54l281 0 5 1 20 0 5 1 5 0 5 1 5 0 6 1 15 3 5 2 5 1 15 6 5 3 6 3 5 3 5 4 5 3 5 5 5 4 10 10 5 6 5 5 6 7 5 6 5 7 5 8 5 7 5 8 15 27 5 10 6 10 5 10 5 12 5 11 10 26 5 14 5 15 5 17 5 18 6 20 5 23 5 26 5 27 10 58 5 28 5 26"/>
<path stroke="blue" d="M621 537l5 24 5 20 6 15 5 12 5 8 5 7 5 5 5 4 15 9 5 2 6 3 5 2 5 1 5 2 5 1 5 2 20 4 6 1 25 5 5 0 10 2 5 0 6 1 5 1 5 0 5 1 5 0 5 1 5 0 5 1 5 0 5 1 11 0 5 1 10 0 5 1 10 0 5 1 11 0 5 1 15 0 5 1 15 0 5 1 21 0 5 1 5 0"/>
</svg>
