<?xml version="1.0" standalone="yes"?>
<!DOCTYPE svg PUBLIC "-//W3C//DTD SVG 1.1//EN"
 "http://www.w3.org/Graphics/SVG/1.1/DTD/svg11.dtd">
<svg xmlns="http://www.w3.org/2000/svg" version="1.1"
  width="100%" height="100%" viewBox="0 0 1024 768"
  style="fill: none; font-family: Helvetica;
 font: Helvetica;
">

<!-- Creator: NGspice -->

<rect x="0" y="0" width="1024" height="768" fill="black" stroke="none"/>
<text stroke="none" fill="white" font-size="16" x="358" y="752">
time
</text>
<text stroke="none" fill="white" font-size="16" x="10" y="16">
tran1: ** sch_path: /home/ee24s053/ee5311-2025/tut6/rca/rca8b_tb.sch
</text>
<path stroke="white" d="M50 720l0 -671"/>
<text stroke="none" fill="white" font-size="16" x="35" y="728">
0.0
</text>
<path stroke="white" stroke-dasharray="1,2" d="M142 720l0 -671"/>
<text stroke="none" fill="white" font-size="16" x="127" y="728">
2.0
</text>
<path stroke="white" stroke-dasharray="1,2" d="M234 720l0 -671"/>
<text stroke="none" fill="white" font-size="16" x="219" y="728">
4.0
</text>
<path stroke="white" stroke-dasharray="1,2" d="M326 720l0 -671"/>
<text stroke="none" fill="white" font-size="16" x="311" y="728">
6.0
</text>
<path stroke="white" stroke-dasharray="1,2" d="M418 720l0 -671"/>
<text stroke="none" fill="white" font-size="16" x="403" y="728">
8.0
</text>
<path stroke="white" stroke-dasharray="1,2" d="M510 720l0 -671"/>
<text stroke="none" fill="white" font-size="16" x="490" y="728">
10.0
</text>
<path stroke="white" stroke-dasharray="1,2" d="M602 720l0 -671"/>
<text stroke="none" fill="white" font-size="16" x="582" y="728">
12.0
</text>
<path stroke="white" stroke-dasharray="1,2" d="M694 720l0 -671"/>
<text stroke="none" fill="white" font-size="16" x="674" y="728">
14.0
</text>
<path stroke="white" stroke-dasharray="1,2" d="M786 720l0 -671"/>
<text stroke="none" fill="white" font-size="16" x="766" y="728">
16.0
</text>
<path stroke="white" stroke-dasharray="1,2" d="M878 720l0 -671"/>
<text stroke="none" fill="white" font-size="16" x="858" y="728">
18.0
</text>
<path stroke="white" stroke-dasharray="1,2" d="M970 720l0 -671"/>
<text stroke="none" fill="white" font-size="16" x="950" y="728">
20.0
</text>
<text stroke="none" fill="white" font-size="16" x="614" y="752">
ns
</text>
<path stroke="white" stroke-dasharray="1,2" d="M50 720l920 0"/>
<text stroke="none" fill="white" font-size="16" x="8" y="728">
-0.2
</text>
<path stroke="white" d="M50 659l920 0"/>
<text stroke="none" fill="white" font-size="16" x="18" y="667">
0.0
</text>
<path stroke="white" stroke-dasharray="1,2" d="M50 598l920 0"/>
<text stroke="none" fill="white" font-size="16" x="18" y="606">
0.2
</text>
<path stroke="white" stroke-dasharray="1,2" d="M50 537l920 0"/>
<text stroke="none" fill="white" font-size="16" x="18" y="545">
0.4
</text>
<path stroke="white" stroke-dasharray="1,2" d="M50 476l920 0"/>
<text stroke="none" fill="white" font-size="16" x="18" y="484">
0.6
</text>
<path stroke="white" stroke-dasharray="1,2" d="M50 415l920 0"/>
<text stroke="none" fill="white" font-size="16" x="18" y="423">
0.8
</text>
<path stroke="white" stroke-dasharray="1,2" d="M50 354l920 0"/>
<text stroke="none" fill="white" font-size="16" x="18" y="362">
1.0
</text>
<path stroke="white" stroke-dasharray="1,2" d="M50 293l920 0"/>
<text stroke="none" fill="white" font-size="16" x="18" y="301">
1.2
</text>
<path stroke="white" stroke-dasharray="1,2" d="M50 232l920 0"/>
<text stroke="none" fill="white" font-size="16" x="18" y="240">
1.4
</text>
<path stroke="white" stroke-dasharray="1,2" d="M50 171l920 0"/>
<text stroke="none" fill="white" font-size="16" x="18" y="179">
1.6
</text>
<path stroke="white" stroke-dasharray="1,2" d="M50 110l920 0"/>
<text stroke="none" fill="white" font-size="16" x="18" y="118">
1.8
</text>
<path stroke="white" stroke-dasharray="1,2" d="M50 49l920 0"/>
<text stroke="none" fill="white" font-size="16" x="18" y="57">
2.0
</text>
<text stroke="none" fill="white" font-size="16" x="10" y="32">
V
</text>
<path stroke="red" d="M460 23l46 0"/>
<text stroke="none" fill="white" font-size="16" x="516" y="32">
v(s7_tap)
</text>
<path stroke="red" d="M50 659l31 0 0 -1 1 0 0 -1 1 0 0 -1 1 0 0 -1 1 0 0 -1 1 0 0 -1 1 0 0 -1 1 0 0 -1M88 652l1 0M89 655l0 -3M89 655l1 0M90 658l0 -3M90 658l1 0M91 660l0 -2M91 660l1 0M92 662l0 -2M92 662l2 0 0 -5 1 0 0 -12 1 -1 0 -21 1 -1 0 -30"/>
<path stroke="red" d="M97 592l1 -1 0 -33 1 -2 0 -38 1 -1 0 -40 1 -2 0 -41 1 -1 0 -39 1 -1 0 -41 1 -2 0 -36 1 -2 0 -33 1 -2 0 -33 1 -2 0 -28 1 -1 0 -23 1 -1 0 -17 1 -1 0 -14 1 0 0 -11 1 0 0 -8 1 -1 0 -6 1 0 0 -5 1 0 0 -3 1 0 0 -3 1 0 0 -2 1 0"/>
<path stroke="red" d="M118 118l0 -2 1 0 0 -1 1 0 0 -1 1 0 0 -1 2 0 0 -1 2 0 0 -1 6 0M131 112l0 -1M131 112l1 0M132 114l0 -2M132 114l1 0M133 116l0 -2M133 116l1 0M134 118l0 -2M134 118l1 1M135 121l0 -2M135 121l1 0M136 124l0 -3M136 124l1 0M137 129l0 -5"/>
<path stroke="red" d="M137 129l1 0M138 138l0 -9M138 138l1 0M139 152l0 -14M139 152l1 1M140 161l0 -8M140 161l1 1 0 -7 1 0 0 -11 1 0 0 -8 1 0M144 138l0 -3M144 138l1 0M145 165l0 -27M145 165l1 2M146 222l0 -55M146 222l1 3M147 302l0 -77M147 302l1 4"/>
<path stroke="red" d="M148 397l0 -91M148 397l1 5M149 514l0 -112M149 514l1 4M150 586l0 -68M150 586l1 3M151 626l0 -37M151 626l1 2M152 644l0 -16M152 644l1 0M153 651l0 -7M153 651l1 0M154 655l0 -4M154 655l1 0M155 656l0 -1M155 656l1 0M156 657l0 -1"/>
<path stroke="red" d="M156 657l1 0M157 658l0 -1M157 658l4 0M161 659l0 -1M161 659l11 0 0 -1 1 0 0 -1 1 0 0 -1 1 0 0 -1 2 0 0 -2 1 0 0 -3 1 -1 0 -8 1 -1 0 -9 1 0 0 -3M181 631l1 0M182 642l0 -11M182 642l1 1M183 651l0 -8M183 651l1 0M184 655l0 -4M184 655l1 0"/>
<path stroke="red" d="M185 655l0 -2 1 -1 0 -10 1 -1 0 -20 1 -1 0 -29 1 -1 0 -34 1 -2 0 -36 1 -2 0 -39 1 -2 0 -40 1 -2 0 -40 1 -2 0 -39 1 -2 0 -36 1 -2 0 -33 1 -2 0 -34 1 -2 0 -27 1 -1 0 -23 1 -1 0 -18 1 0 0 -14 1 0 0 -11 1 0 0 -8 1 -1 0 -6 1 0"/>
<path stroke="red" d="M205 131l0 -5 1 0 0 -3 1 0 0 -3 1 0 0 -2 1 0 0 -2 1 0 0 -1 1 0 0 -1 1 0 0 -1 2 0 0 -1 3 0 0 -1 6 0M223 112l0 -1M223 112l1 0M224 114l0 -2M224 114l1 0M225 116l0 -2M225 116l1 0M226 118l0 -2M226 118l1 1M227 121l0 -2M227 121l1 0"/>
<path stroke="red" d="M228 124l0 -3M228 124l1 0M229 128l0 -4M229 128l1 1M230 137l0 -8M230 137l1 0M231 150l0 -13M231 150l1 0M232 155l0 -5M232 155l1 0 0 -7 1 -1 0 -9 1 0 0 -8 1 0M236 133l0 -3M236 133l1 1M237 161l0 -27M237 161l1 2M238 219l0 -56"/>
<path stroke="red" d="M238 219l1 4M239 300l0 -77M239 300l1 5M240 396l0 -91M240 396l1 5M241 513l0 -112M241 513l1 5M242 586l0 -68M242 586l1 2M243 626l0 -38M243 626l1 2M244 644l0 -16M244 644l1 0M245 651l0 -7M245 651l1 0M246 655l0 -4M246 655l1 0"/>
<path stroke="red" d="M247 656l0 -1M247 656l1 0M248 657l0 -1M248 657l1 0M249 658l0 -1M249 658l4 0M253 659l0 -1M253 659l11 0 0 -1 1 0 0 -1 1 0 0 -1 1 0 0 -1 2 0 0 -2 1 0 0 -3 1 -1 0 -8 1 -1 0 -9 1 0 0 -3M273 631l1 0M274 642l0 -11M274 642l1 1M275 651l0 -8"/>
<path stroke="red" d="M275 651l1 0M276 655l0 -4M276 655l1 0 0 -2 1 -1 0 -10 1 -1 0 -20 1 -1 0 -29 1 -1 0 -34 1 -2 0 -36 1 -2 0 -39 1 -2 0 -40 1 -2 0 -40 1 -2 0 -39 1 -2 0 -36 1 -2 0 -33 1 -2 0 -34 1 -2 0 -27 1 -1 0 -23 1 -1 0 -18 1 0 0 -14 1 0"/>
<path stroke="red" d="M294 157l0 -11 1 0 0 -8 1 -1 0 -6 1 0 0 -5 1 0 0 -3 1 0 0 -3 1 0 0 -2 1 0 0 -2 1 0 0 -1 1 0 0 -1 1 0 0 -1 2 0 0 -1 3 0 0 -1 6 0M315 112l0 -1M315 112l1 0M316 114l0 -2M316 114l1 0M317 116l0 -2M317 116l1 0M318 118l0 -2M318 118l1 1"/>
<path stroke="red" d="M319 121l0 -2M319 121l1 0M320 124l0 -3M320 124l1 0M321 128l0 -4M321 128l1 1M322 137l0 -8M322 137l1 0M323 150l0 -13M323 150l1 0M324 155l0 -5M324 155l1 0 0 -7 1 -1 0 -9 1 0 0 -8 1 0M328 133l0 -3M328 133l1 1M329 161l0 -27M329 161l1 2"/>
<path stroke="red" d="M330 219l0 -56M330 219l1 4M331 300l0 -77M331 300l1 5M332 396l0 -91M332 396l1 5M333 513l0 -112M333 513l1 5M334 586l0 -68M334 586l1 2M335 626l0 -38M335 626l1 2M336 644l0 -16M336 644l1 0M337 651l0 -7M337 651l1 0M338 655l0 -4"/>
<path stroke="red" d="M338 655l1 0M339 656l0 -1M339 656l1 0M340 657l0 -1M340 657l1 0M341 658l0 -1M341 658l4 0M345 659l0 -1M345 659l11 0 0 -1 1 0 0 -1 1 0 0 -1 1 0 0 -1 2 0 0 -2 1 0 0 -3 1 -1 0 -8 1 -1 0 -9 1 0 0 -3M365 631l1 0M366 642l0 -11M366 642l1 1"/>
<path stroke="red" d="M367 651l0 -8M367 651l1 0M368 655l0 -4M368 655l1 0 0 -2 1 -1 0 -10 1 -1 0 -20 1 -1 0 -29 1 -1 0 -34 1 -2 0 -36 1 -2 0 -39 1 -2 0 -40 1 -2 0 -40 1 -2 0 -39 1 -2 0 -36 1 -2 0 -33 1 -2 0 -34 1 -2 0 -27 1 -1 0 -23 1 -1 0 -18"/>
<path stroke="red" d="M384 171l1 0 0 -14 1 0 0 -11 1 0 0 -8 1 -1 0 -6 1 0 0 -5 1 0 0 -3 1 0 0 -3 1 0 0 -2 1 0 0 -2 1 0 0 -1 1 0 0 -1 1 0 0 -1 2 0 0 -1 3 0 0 -1 6 0M407 112l0 -1M407 112l1 0M408 114l0 -2M408 114l1 0M409 116l0 -2M409 116l1 0M410 118l0 -2"/>
<path stroke="red" d="M410 118l1 1M411 121l0 -2M411 121l1 0M412 124l0 -3M412 124l1 0M413 128l0 -4M413 128l1 1M414 137l0 -8M414 137l1 0M415 150l0 -13M415 150l1 0M416 155l0 -5M416 155l1 0 0 -7 1 -1 0 -9 1 0 0 -8 1 0M420 133l0 -3M420 133l1 1M421 161l0 -27"/>
<path stroke="red" d="M421 161l1 2M422 219l0 -56M422 219l1 4M423 300l0 -77M423 300l1 5M424 396l0 -91M424 396l1 5M425 513l0 -112M425 513l1 5M426 586l0 -68M426 586l1 2M427 626l0 -38M427 626l1 2M428 644l0 -16M428 644l1 0M429 651l0 -7M429 651l1 0"/>
<path stroke="red" d="M430 655l0 -4M430 655l1 0M431 656l0 -1M431 656l1 0M432 657l0 -1M432 657l1 0M433 658l0 -1M433 658l4 0M437 659l0 -1M437 659l11 0 0 -1 1 0 0 -1 1 0 0 -1 1 0 0 -1 2 0 0 -2 1 0 0 -3 1 -1 0 -8 1 -1 0 -9 1 0 0 -3M457 631l1 0M458 642l0 -11"/>
<path stroke="red" d="M458 642l1 1M459 651l0 -8M459 651l1 0M460 655l0 -4M460 655l1 0 0 -2 1 -1 0 -10 1 -1 0 -20 1 -1 0 -29 1 -1 0 -34 1 -2 0 -36 1 -2 0 -39 1 -2 0 -40 1 -2 0 -40 1 -2 0 -39 1 -2 0 -36 1 -2 0 -33 1 -2 0 -34 1 -2 0 -27 1 -1 0 -23"/>
<path stroke="red" d="M475 190l1 -1 0 -18 1 0 0 -14 1 0 0 -11 1 0 0 -8 1 -1 0 -6 1 0 0 -5 1 0 0 -3 1 0 0 -3 1 0 0 -2 1 0 0 -2 1 0 0 -1 1 0 0 -1 1 0 0 -1 2 0 0 -1 3 0 0 -1 6 0M499 112l0 -1M499 112l1 0M500 114l0 -2M500 114l1 0M501 116l0 -2M501 116l1 0"/>
<path stroke="red" d="M502 118l0 -2M502 118l1 1M503 121l0 -2M503 121l1 0M504 124l0 -3M504 124l1 0M505 128l0 -4M505 128l1 1M506 137l0 -8M506 137l1 0M507 150l0 -13M507 150l1 0M508 155l0 -5M508 155l1 0 0 -7 1 -1 0 -9 1 0 0 -8 1 0M512 133l0 -3M512 133l1 1"/>
<path stroke="red" d="M513 161l0 -27M513 161l1 2M514 219l0 -56M514 219l1 4M515 300l0 -77M515 300l1 5M516 396l0 -91M516 396l1 5M517 513l0 -112M517 513l1 5M518 586l0 -68M518 586l1 2M519 626l0 -38M519 626l1 2M520 644l0 -16M520 644l1 0M521 651l0 -7"/>
<path stroke="red" d="M521 651l1 0M522 655l0 -4M522 655l1 0M523 656l0 -1M523 656l1 0M524 657l0 -1M524 657l1 0M525 658l0 -1M525 658l4 0M529 659l0 -1M529 659l11 0 0 -1 1 0 0 -1 1 0 0 -1 1 0 0 -1 2 0 0 -2 1 0 0 -3 1 -1 0 -8 1 -1 0 -9 1 0 0 -3M549 631l1 0"/>
<path stroke="red" d="M550 642l0 -11M550 642l1 1M551 651l0 -8M551 651l1 0M552 655l0 -4M552 655l1 0 0 -2 1 -1 0 -10 1 -1 0 -20 1 -1 0 -29 1 -1 0 -34 1 -2 0 -36 1 -2 0 -39 1 -2 0 -40 1 -2 0 -40 1 -2 0 -39 1 -2 0 -36 1 -2 0 -33 1 -2 0 -34 1 -2 0 -27"/>
<path stroke="red" d="M566 214l1 -1 0 -23 1 -1 0 -18 1 0 0 -14 1 0 0 -11 1 0 0 -8 1 -1 0 -6 1 0 0 -5 1 0 0 -3 1 0 0 -3 1 0 0 -2 1 0 0 -2 1 0 0 -1 1 0 0 -1 1 0 0 -1 2 0 0 -1 3 0 0 -1 6 0M591 112l0 -1M591 112l1 0M592 114l0 -2M592 114l1 0M593 116l0 -2"/>
<path stroke="red" d="M593 116l1 0M594 118l0 -2M594 118l1 1M595 121l0 -2M595 121l1 0M596 124l0 -3M596 124l1 0M597 128l0 -4M597 128l1 1M598 137l0 -8M598 137l1 0M599 150l0 -13M599 150l1 0M600 155l0 -5M600 155l1 0 0 -7 1 -1 0 -9 1 0 0 -8 1 0M604 133l0 -3"/>
<path stroke="red" d="M604 133l1 1M605 161l0 -27M605 161l1 2M606 219l0 -56M606 219l1 4M607 300l0 -77M607 300l1 5M608 396l0 -91M608 396l1 5M609 513l0 -112M609 513l1 5M610 586l0 -68M610 586l1 2M611 626l0 -38M611 626l1 2M612 644l0 -16M612 644l1 0"/>
<path stroke="red" d="M613 651l0 -7M613 651l1 0M614 655l0 -4M614 655l1 0M615 656l0 -1M615 656l1 0M616 657l0 -1M616 657l1 0M617 658l0 -1M617 658l4 0M621 659l0 -1M621 659l11 0 0 -1 1 0 0 -1 1 0 0 -1 1 0 0 -1 2 0 0 -2 1 0 0 -3 1 -1 0 -8 1 -1 0 -9"/>
<path stroke="red" d="M640 631l1 0 0 -3M641 631l1 0M642 642l0 -11M642 642l1 1M643 651l0 -8M643 651l1 0M644 655l0 -4M644 655l1 0 0 -2 1 -1 0 -10 1 -1 0 -20 1 -1 0 -29 1 -1 0 -34 1 -2 0 -36 1 -2 0 -39 1 -2 0 -40 1 -2 0 -40 1 -2 0 -39 1 -2 0 -36"/>
<path stroke="red" d="M655 314l1 -2 0 -33 1 -2 0 -34 1 -2 0 -27 1 -1 0 -23 1 -1 0 -18 1 0 0 -14 1 0 0 -11 1 0 0 -8 1 -1 0 -6 1 0 0 -5 1 0 0 -3 1 0 0 -3 1 0 0 -2 1 0 0 -2 1 0 0 -1 1 0 0 -1 1 0 0 -1 2 0 0 -1 3 0 0 -1 6 0M683 112l0 -1M683 112l1 0"/>
<path stroke="red" d="M684 114l0 -2M684 114l1 0M685 116l0 -2M685 116l1 0M686 118l0 -2M686 118l1 1M687 121l0 -2M687 121l1 0M688 124l0 -3M688 124l1 0M689 128l0 -4M689 128l1 1M690 137l0 -8M690 137l1 0M691 150l0 -13M691 150l1 0M692 155l0 -5M692 155l1 0"/>
<path stroke="red" d="M693 155l0 -7 1 -1 0 -9 1 0 0 -8 1 0M696 133l0 -3M696 133l1 1M697 161l0 -27M697 161l1 2M698 219l0 -56M698 219l1 4M699 300l0 -77M699 300l1 5M700 396l0 -91M700 396l1 5M701 513l0 -112M701 513l1 5M702 586l0 -68M702 586l1 2M703 626l0 -38"/>
<path stroke="red" d="M703 626l1 2M704 644l0 -16M704 644l1 0M705 651l0 -7M705 651l1 0M706 655l0 -4M706 655l1 0M707 656l0 -1M707 656l1 0M708 657l0 -1M708 657l1 0M709 658l0 -1M709 658l4 0M713 659l0 -1M713 659l11 0 0 -1 1 0 0 -1 1 0 0 -1 1 0 0 -1"/>
<path stroke="red" d="M727 655l2 0 0 -2 1 0 0 -3 1 -1 0 -8 1 -1 0 -9 1 0 0 -3M733 631l1 0M734 642l0 -11M734 642l1 1M735 651l0 -8M735 651l1 0M736 655l0 -4M736 655l1 0 0 -2 1 -1 0 -10 1 -1 0 -20 1 -1 0 -29 1 -1 0 -34 1 -2 0 -36 1 -2 0 -39 1 -2"/>
<path stroke="red" d="M744 475l0 -40 1 -2 0 -40 1 -2 0 -39 1 -2 0 -36 1 -2 0 -33 1 -2 0 -34 1 -2 0 -27 1 -1 0 -23 1 -1 0 -18 1 0 0 -14 1 0 0 -11 1 0 0 -8 1 -1 0 -6 1 0 0 -5 1 0 0 -3 1 0 0 -3 1 0 0 -2 1 0 0 -2 1 0 0 -1 1 0 0 -1 1 0 0 -1 2 0 0 -1"/>
<path stroke="red" d="M766 112l3 0 0 -1 6 0M775 112l0 -1M775 112l1 0M776 114l0 -2M776 114l1 0M777 116l0 -2M777 116l1 0M778 118l0 -2M778 118l1 1M779 121l0 -2M779 121l1 0M780 124l0 -3M780 124l1 0M781 128l0 -4M781 128l1 1M782 137l0 -8M782 137l1 0"/>
<path stroke="red" d="M783 150l0 -13M783 150l1 0M784 155l0 -5M784 155l1 0 0 -7 1 -1 0 -9 1 0 0 -8 1 0M788 133l0 -3M788 133l1 1M789 161l0 -27M789 161l1 2M790 219l0 -56M790 219l1 4M791 300l0 -77M791 300l1 5M792 396l0 -91M792 396l1 5M793 513l0 -112"/>
<path stroke="red" d="M793 513l1 5M794 586l0 -68M794 586l1 2M795 626l0 -38M795 626l1 2M796 644l0 -16M796 644l1 0M797 651l0 -7M797 651l1 0M798 655l0 -4M798 655l1 0M799 656l0 -1M799 656l1 0M800 657l0 -1M800 657l1 0M801 658l0 -1M801 658l4 0M805 659l0 -1"/>
<path stroke="red" d="M805 659l11 0 0 -1 1 0 0 -1 1 0 0 -1 1 0 0 -1 2 0 0 -2 1 0 0 -3 1 -1 0 -8 1 -1 0 -9 1 0 0 -3M825 631l1 0M826 642l0 -11M826 642l1 1M827 651l0 -8M827 651l1 0M828 655l0 -4M828 655l1 0 0 -2 1 -1 0 -10 1 -1 0 -20 1 -1 0 -29 1 -1"/>
<path stroke="red" d="M833 590l0 -34 1 -2 0 -36 1 -2 0 -39 1 -2 0 -40 1 -2 0 -40 1 -2 0 -39 1 -2 0 -36 1 -2 0 -33 1 -2 0 -34 1 -2 0 -27 1 -1 0 -23 1 -1 0 -18 1 0 0 -14 1 0 0 -11 1 0 0 -8 1 -1 0 -6 1 0 0 -5 1 0 0 -3 1 0 0 -3 1 0 0 -2 1 0 0 -2"/>
<path stroke="red" d="M853 116l1 0 0 -1 1 0 0 -1 1 0 0 -1 2 0 0 -1 3 0 0 -1 6 0M867 112l0 -1M867 112l1 0M868 114l0 -2M868 114l1 0M869 116l0 -2M869 116l1 0M870 118l0 -2M870 118l1 1M871 121l0 -2M871 121l1 0M872 124l0 -3M872 124l1 0M873 128l0 -4"/>
<path stroke="red" d="M873 128l1 1M874 137l0 -8M874 137l1 0M875 150l0 -13M875 150l1 0M876 155l0 -5M876 155l1 0 0 -7 1 -1 0 -9 1 0 0 -8 1 0M880 133l0 -3M880 133l1 1M881 161l0 -27M881 161l1 2M882 219l0 -56M882 219l1 4M883 300l0 -77M883 300l1 5"/>
<path stroke="red" d="M884 396l0 -91M884 396l1 5M885 513l0 -112M885 513l1 5M886 586l0 -68M886 586l1 2M887 626l0 -38M887 626l1 2M888 644l0 -16M888 644l1 0M889 651l0 -7M889 651l1 0M890 655l0 -4M890 655l1 0M891 656l0 -1M891 656l1 0M892 657l0 -1"/>
<path stroke="red" d="M892 657l1 0M893 658l0 -1M893 658l4 0M897 659l0 -1M897 659l11 0 0 -1 1 0 0 -1 1 0 0 -1 1 0 0 -1 2 0 0 -2 1 0 0 -3 1 -1 0 -8 1 -1 0 -9 1 0 0 -3M917 631l1 0M918 642l0 -11M918 642l1 1M919 651l0 -8M919 651l1 0M920 655l0 -4M920 655l1 0"/>
<path stroke="red" d="M921 655l0 -2 1 -1 0 -10 1 -1 0 -20 1 -1 0 -29 1 -1 0 -34 1 -2 0 -36 1 -2 0 -39 1 -2 0 -40 1 -2 0 -40 1 -2 0 -39 1 -2 0 -36 1 -2 0 -33 1 -2 0 -34 1 -2 0 -27 1 -1 0 -23 1 -1 0 -18 1 0 0 -14 1 0 0 -11 1 0 0 -8 1 -1 0 -6 1 0"/>
<path stroke="red" d="M941 131l0 -5 1 0 0 -3 1 0 0 -3 1 0 0 -2 1 0 0 -2 1 0 0 -1 1 0 0 -1 1 0 0 -1 2 0 0 -1 3 0 0 -1 6 0M959 112l0 -1M959 112l1 0M960 114l0 -2M960 114l1 0M961 116l0 -2M961 116l1 0M962 118l0 -2M962 118l1 1M963 121l0 -2M963 121l1 0"/>
<path stroke="red" d="M964 124l0 -3M964 124l1 0M965 128l0 -4M965 128l1 1M966 137l0 -8M966 137l1 0M967 150l0 -13M967 150l1 0M968 155l0 -5M968 155l1 0 0 -7 1 -1 0 -4"/>
<path stroke="blue" d="M50 23l46 0"/>
<text stroke="none" fill="white" font-size="16" x="106" y="32">
v(cout_tap)
</text>
<path stroke="blue" d="M50 659l0 -1 1 0M51 659l0 -1M51 659l36 0M87 660l0 -1M87 660l1 0M88 661l0 -1M88 661l1 1M89 664l0 -2M89 664l1 0M90 665l0 -1M90 665l1 1M91 667l0 -1M91 667l1 1M92 669l0 -1M92 669l1 0 0 -5 1 0 0 -16 1 -2 0 -39 1 -3 0 -62 1 -3"/>
<path stroke="blue" d="M97 539l0 -81 1 -4 0 -77 1 -3 0 -65 1 -2 0 -40 1 -2 0 -29 1 -1 0 -24 1 -1 0 -23 1 -1 0 -18 1 -1 0 -14 1 -1 0 -10 1 0 0 -8 1 0 0 -6 1 0 0 -5 1 0 0 -3 1 0 0 -3 1 0 0 -2 1 0 0 -1 1 0 0 -1 1 0 0 -1 1 0 0 -1 4 0 0 -1 14 0M134 111l0 -1"/>
<path stroke="blue" d="M134 111l2 0 0 -1 2 0 0 -1 1 -1 0 -2 1 0 0 -4 1 0 0 -3 1 0 0 -4 1 0 0 -1 1 0M144 97l0 -3M144 97l1 1M145 115l0 -17M145 115l1 2M146 153l0 -36M146 153l1 2M147 211l0 -56M147 211l1 3M148 278l0 -64M148 278l1 4M149 360l0 -78M149 360l1 4"/>
<path stroke="blue" d="M150 459l0 -95M150 459l1 5M151 554l0 -90M151 554l1 3M152 605l0 -48M152 605l1 2M153 632l0 -25M153 632l1 1M154 644l0 -11M154 644l1 0M155 649l0 -5M155 649l1 0M156 652l0 -3M156 652l1 0M157 654l0 -2M157 654l1 0M158 656l0 -2"/>
<path stroke="blue" d="M158 656l1 0M159 657l0 -1M159 657l2 0M161 658l0 -1M161 658l4 0M165 659l0 -1M165 659l8 0 0 -1 5 0M178 659l0 -1M178 659l1 0M179 661l0 -2M179 661l1 0M180 663l0 -2M180 663l1 0M181 665l0 -2M181 665l1 0M182 667l0 -2M182 667l1 0"/>
<path stroke="blue" d="M183 669l0 -2M183 669l1 0 0 -2 1 0 0 -13 1 -1 0 -33 1 -2 0 -58 1 -4 0 -80 1 -3 0 -85 1 -4 0 -68 1 -3 0 -46 1 -2 0 -34 1 -2 0 -27 1 -1 0 -21 1 -1 0 -17 1 0 0 -13 1 0 0 -10 1 0 0 -7 1 0 0 -6 1 0 0 -4 1 0 0 -3 1 0 0 -2 1 0"/>
<path stroke="blue" d="M203 117l0 -2 1 0 0 -2 1 0 0 -1 2 0 0 -1 3 0 0 -1 16 0M226 111l0 -1M226 111l2 0 0 -1 2 0 0 -1 1 -1 0 -2 1 0 0 -4 1 0 0 -3 1 0 0 -4 1 0 0 -1 1 0M236 98l0 -4M236 98l1 0M237 116l0 -18M237 116l1 1M238 155l0 -38M238 155l1 2"/>
<path stroke="blue" d="M239 212l0 -55M239 212l1 3M240 280l0 -65M240 280l1 4M241 363l0 -79M241 363l1 4M242 462l0 -95M242 462l1 5M243 556l0 -89M243 556l1 3M244 607l0 -48M244 607l1 1M245 633l0 -25M245 633l1 1M246 644l0 -10M246 644l1 1M247 649l0 -4"/>
<path stroke="blue" d="M247 649l1 1M248 652l0 -2M248 652l1 0M249 654l0 -2M249 654l1 1M250 656l0 -1M250 656l1 0M251 657l0 -1M251 657l2 0M253 658l0 -1M253 658l4 0M257 659l0 -1M257 659l8 0 0 -1 5 0M270 659l0 -1M270 659l1 0M271 661l0 -2M271 661l1 0"/>
<path stroke="blue" d="M272 663l0 -2M272 663l1 0M273 665l0 -2M273 665l1 0M274 667l0 -2M274 667l1 0M275 669l0 -2M275 669l1 0 0 -2 1 0 0 -13 1 -1 0 -33 1 -2 0 -58 1 -4 0 -80 1 -3 0 -85 1 -4 0 -68 1 -3 0 -46 1 -2 0 -34 1 -2 0 -27 1 -1 0 -21 1 -1"/>
<path stroke="blue" d="M287 179l0 -17 1 0 0 -13 1 0 0 -10 1 0 0 -7 1 0 0 -6 1 0 0 -4 1 0 0 -3 1 0 0 -2 1 0 0 -2 1 0 0 -2 1 0 0 -1 2 0 0 -1 3 0 0 -1 16 0M318 111l0 -1M318 111l2 0 0 -1 2 0 0 -1 1 -1 0 -2 1 0 0 -4 1 0 0 -3 1 0 0 -4 1 0 0 -1 1 0"/>
<path stroke="blue" d="M328 98l0 -4M328 98l1 0M329 116l0 -18M329 116l1 1M330 155l0 -38M330 155l1 2M331 212l0 -55M331 212l1 3M332 280l0 -65M332 280l1 4M333 363l0 -79M333 363l1 4M334 462l0 -95M334 462l1 5M335 556l0 -89M335 556l1 3M336 607l0 -48"/>
<path stroke="blue" d="M336 607l1 1M337 633l0 -25M337 633l1 1M338 644l0 -10M338 644l1 1M339 649l0 -4M339 649l1 1M340 652l0 -2M340 652l1 0M341 654l0 -2M341 654l1 1M342 656l0 -1M342 656l1 0M343 657l0 -1M343 657l2 0M345 658l0 -1M345 658l4 0M349 659l0 -1"/>
<path stroke="blue" d="M349 659l8 0 0 -1 5 0M362 659l0 -1M362 659l1 0M363 661l0 -2M363 661l1 0M364 663l0 -2M364 663l1 0M365 665l0 -2M365 665l1 0M366 667l0 -2M366 667l1 0M367 669l0 -2M367 669l1 0 0 -2 1 0 0 -13 1 -1 0 -33 1 -2 0 -58 1 -4 0 -80"/>
<path stroke="blue" d="M372 476l1 -3 0 -85 1 -4 0 -68 1 -3 0 -46 1 -2 0 -34 1 -2 0 -27 1 -1 0 -21 1 -1 0 -17 1 0 0 -13 1 0 0 -10 1 0 0 -7 1 0 0 -6 1 0 0 -4 1 0 0 -3 1 0 0 -2 1 0 0 -2 1 0 0 -2 1 0 0 -1 2 0 0 -1 3 0 0 -1 16 0M410 111l0 -1M410 111l2 0"/>
<path stroke="blue" d="M412 111l0 -1 2 0 0 -1 1 -1 0 -2 1 0 0 -4 1 0 0 -3 1 0 0 -4 1 0 0 -1 1 0M420 98l0 -4M420 98l1 0M421 116l0 -18M421 116l1 1M422 155l0 -38M422 155l1 2M423 212l0 -55M423 212l1 3M424 280l0 -65M424 280l1 4M425 363l0 -79M425 363l1 4"/>
<path stroke="blue" d="M426 462l0 -95M426 462l1 5M427 556l0 -89M427 556l1 3M428 607l0 -48M428 607l1 1M429 633l0 -25M429 633l1 1M430 644l0 -10M430 644l1 1M431 649l0 -4M431 649l1 1M432 652l0 -2M432 652l1 0M433 654l0 -2M433 654l1 1M434 656l0 -1"/>
<path stroke="blue" d="M434 656l1 0M435 657l0 -1M435 657l2 0M437 658l0 -1M437 658l4 0M441 659l0 -1M441 659l8 0 0 -1 5 0M454 659l0 -1M454 659l1 0M455 661l0 -2M455 661l1 0M456 663l0 -2M456 663l1 0M457 665l0 -2M457 665l1 0M458 667l0 -2M458 667l1 0"/>
<path stroke="blue" d="M459 669l0 -2M459 669l1 0 0 -2 1 0 0 -13 1 -1 0 -33 1 -2 0 -58 1 -4 0 -80 1 -3 0 -85 1 -4 0 -68 1 -3 0 -46 1 -2 0 -34 1 -2 0 -27 1 -1 0 -21 1 -1 0 -17 1 0 0 -13 1 0 0 -10 1 0 0 -7 1 0 0 -6 1 0 0 -4 1 0 0 -3 1 0 0 -2 1 0"/>
<path stroke="blue" d="M479 117l0 -2 1 0 0 -2 1 0 0 -1 2 0 0 -1 3 0 0 -1 16 0M502 111l0 -1M502 111l2 0 0 -1 2 0 0 -1 1 -1 0 -2 1 0 0 -4 1 0 0 -3 1 0 0 -4 1 0 0 -1 1 0M512 98l0 -4M512 98l1 0M513 116l0 -18M513 116l1 1M514 155l0 -38M514 155l1 2"/>
<path stroke="blue" d="M515 212l0 -55M515 212l1 3M516 280l0 -65M516 280l1 4M517 363l0 -79M517 363l1 4M518 462l0 -95M518 462l1 5M519 556l0 -89M519 556l1 3M520 607l0 -48M520 607l1 1M521 633l0 -25M521 633l1 1M522 644l0 -10M522 644l1 1M523 649l0 -4"/>
<path stroke="blue" d="M523 649l1 1M524 652l0 -2M524 652l1 0M525 654l0 -2M525 654l1 1M526 656l0 -1M526 656l1 0M527 657l0 -1M527 657l2 0M529 658l0 -1M529 658l4 0M533 659l0 -1M533 659l8 0 0 -1 5 0M546 659l0 -1M546 659l1 0M547 661l0 -2M547 661l1 0"/>
<path stroke="blue" d="M548 663l0 -2M548 663l1 0M549 665l0 -2M549 665l1 0M550 667l0 -2M550 667l1 0M551 669l0 -2M551 669l1 0 0 -2 1 0 0 -13 1 -1 0 -33 1 -2 0 -58 1 -4 0 -80 1 -3 0 -85 1 -4 0 -68 1 -3 0 -46 1 -2 0 -34 1 -2 0 -27 1 -1 0 -21 1 -1"/>
<path stroke="blue" d="M563 179l0 -17 1 0 0 -13 1 0 0 -10 1 0 0 -7 1 0 0 -6 1 0 0 -4 1 0 0 -3 1 0 0 -2 1 0 0 -2 1 0 0 -2 1 0 0 -1 2 0 0 -1 3 0 0 -1 16 0M594 111l0 -1M594 111l2 0 0 -1 2 0 0 -1 1 -1 0 -2 1 0 0 -4 1 0 0 -3 1 0 0 -4 1 0 0 -1 1 0"/>
<path stroke="blue" d="M604 98l0 -4M604 98l1 0M605 116l0 -18M605 116l1 1M606 155l0 -38M606 155l1 2M607 212l0 -55M607 212l1 3M608 280l0 -65M608 280l1 4M609 363l0 -79M609 363l1 4M610 462l0 -95M610 462l1 5M611 556l0 -89M611 556l1 3M612 607l0 -48"/>
<path stroke="blue" d="M612 607l1 1M613 633l0 -25M613 633l1 1M614 644l0 -10M614 644l1 1M615 649l0 -4M615 649l1 1M616 652l0 -2M616 652l1 0M617 654l0 -2M617 654l1 1M618 656l0 -1M618 656l1 0M619 657l0 -1M619 657l2 0M621 658l0 -1M621 658l4 0M625 659l0 -1"/>
<path stroke="blue" d="M625 659l8 0 0 -1 5 0M638 659l0 -1M638 659l1 0M639 661l0 -2M639 661l1 0M640 663l0 -2M640 663l1 0M641 665l0 -2M641 665l1 0M642 667l0 -2M642 667l1 0M643 669l0 -2M643 669l1 0 0 -2 1 0 0 -13 1 -1 0 -33 1 -2 0 -58 1 -4 0 -80"/>
<path stroke="blue" d="M648 476l1 -3 0 -85 1 -4 0 -68 1 -3 0 -46 1 -2 0 -34 1 -2 0 -27 1 -1 0 -21 1 -1 0 -17 1 0 0 -13 1 0 0 -10 1 0 0 -7 1 0 0 -6 1 0 0 -4 1 0 0 -3 1 0 0 -2 1 0 0 -2 1 0 0 -2 1 0 0 -1 2 0 0 -1 3 0 0 -1 16 0M686 111l0 -1M686 111l2 0"/>
<path stroke="blue" d="M688 111l0 -1 2 0 0 -1 1 -1 0 -2 1 0 0 -4 1 0 0 -3 1 0 0 -4 1 0 0 -1 1 0M696 98l0 -4M696 98l1 0M697 116l0 -18M697 116l1 1M698 155l0 -38M698 155l1 2M699 212l0 -55M699 212l1 3M700 280l0 -65M700 280l1 4M701 363l0 -79M701 363l1 4"/>
<path stroke="blue" d="M702 462l0 -95M702 462l1 5M703 556l0 -89M703 556l1 3M704 607l0 -48M704 607l1 1M705 633l0 -25M705 633l1 1M706 644l0 -10M706 644l1 1M707 649l0 -4M707 649l1 1M708 652l0 -2M708 652l1 0M709 654l0 -2M709 654l1 1M710 656l0 -1"/>
<path stroke="blue" d="M710 656l1 0M711 657l0 -1M711 657l2 0M713 658l0 -1M713 658l4 0M717 659l0 -1M717 659l8 0 0 -1 5 0M730 659l0 -1M730 659l1 0M731 661l0 -2M731 661l1 0M732 663l0 -2M732 663l1 0M733 665l0 -2M733 665l1 0M734 667l0 -2M734 667l1 0"/>
<path stroke="blue" d="M735 669l0 -2M735 669l1 0 0 -2 1 0 0 -13 1 -1 0 -33 1 -2 0 -58 1 -4 0 -80 1 -3 0 -85 1 -4 0 -68 1 -3 0 -46 1 -2 0 -34 1 -2 0 -27 1 -1 0 -21 1 -1 0 -17 1 0 0 -13 1 0 0 -10 1 0 0 -7 1 0 0 -6 1 0 0 -4 1 0 0 -3 1 0 0 -2 1 0"/>
<path stroke="blue" d="M755 117l0 -2 1 0 0 -2 1 0 0 -1 2 0 0 -1 3 0 0 -1 16 0M778 111l0 -1M778 111l2 0 0 -1 2 0 0 -1 1 -1 0 -2 1 0 0 -4 1 0 0 -3 1 0 0 -4 1 0 0 -1 1 0M788 98l0 -4M788 98l1 0M789 116l0 -18M789 116l1 1M790 155l0 -38M790 155l1 2"/>
<path stroke="blue" d="M791 212l0 -55M791 212l1 3M792 280l0 -65M792 280l1 4M793 363l0 -79M793 363l1 4M794 462l0 -95M794 462l1 5M795 556l0 -89M795 556l1 3M796 607l0 -48M796 607l1 1M797 633l0 -25M797 633l1 1M798 644l0 -10M798 644l1 1M799 649l0 -4"/>
<path stroke="blue" d="M799 649l1 1M800 652l0 -2M800 652l1 0M801 654l0 -2M801 654l1 1M802 656l0 -1M802 656l1 0M803 657l0 -1M803 657l2 0M805 658l0 -1M805 658l4 0M809 659l0 -1M809 659l8 0 0 -1 5 0M822 659l0 -1M822 659l1 0M823 661l0 -2M823 661l1 0"/>
<path stroke="blue" d="M824 663l0 -2M824 663l1 0M825 665l0 -2M825 665l1 0M826 667l0 -2M826 667l1 0M827 669l0 -2M827 669l1 0 0 -2 1 0 0 -13 1 -1 0 -33 1 -2 0 -58 1 -4 0 -80 1 -3 0 -85 1 -4 0 -68 1 -3 0 -46 1 -2 0 -34 1 -2 0 -27 1 -1 0 -21 1 -1"/>
<path stroke="blue" d="M839 179l0 -17 1 0 0 -13 1 0 0 -10 1 0 0 -7 1 0 0 -6 1 0 0 -4 1 0 0 -3 1 0 0 -2 1 0 0 -2 1 0 0 -2 1 0 0 -1 2 0 0 -1 3 0 0 -1 16 0M870 111l0 -1M870 111l2 0 0 -1 2 0 0 -1 1 -1 0 -2 1 0 0 -4 1 0 0 -3 1 0 0 -4 1 0 0 -1 1 0"/>
<path stroke="blue" d="M880 98l0 -4M880 98l1 0M881 116l0 -18M881 116l1 1M882 155l0 -38M882 155l1 2M883 212l0 -55M883 212l1 3M884 280l0 -65M884 280l1 4M885 363l0 -79M885 363l1 4M886 462l0 -95M886 462l1 5M887 556l0 -89M887 556l1 3M888 607l0 -48"/>
<path stroke="blue" d="M888 607l1 1M889 633l0 -25M889 633l1 1M890 644l0 -10M890 644l1 1M891 649l0 -4M891 649l1 1M892 652l0 -2M892 652l1 0M893 654l0 -2M893 654l1 1M894 656l0 -1M894 656l1 0M895 657l0 -1M895 657l2 0M897 658l0 -1M897 658l4 0M901 659l0 -1"/>
<path stroke="blue" d="M901 659l8 0 0 -1 5 0M914 659l0 -1M914 659l1 0M915 661l0 -2M915 661l1 0M916 663l0 -2M916 663l1 0M917 665l0 -2M917 665l1 0M918 667l0 -2M918 667l1 0M919 669l0 -2M919 669l1 0 0 -2 1 0 0 -13 1 -1 0 -33 1 -2 0 -58 1 -4 0 -80"/>
<path stroke="blue" d="M924 476l1 -3 0 -85 1 -4 0 -68 1 -3 0 -46 1 -2 0 -34 1 -2 0 -27 1 -1 0 -21 1 -1 0 -17 1 0 0 -13 1 0 0 -10 1 0 0 -7 1 0 0 -6 1 0 0 -4 1 0 0 -3 1 0 0 -2 1 0 0 -2 1 0 0 -2 1 0 0 -1 2 0 0 -1 3 0 0 -1 16 0M962 111l0 -1M962 111l2 0"/>
<path stroke="blue" d="M964 111l0 -1 2 0 0 -1 1 -1 0 -2 1 0 0 -4 1 0 0 -3 1 0 0 -2"/>
</svg>
