<?xml version="1.0" standalone="yes"?>
<!DOCTYPE svg PUBLIC "-//W3C//DTD SVG 1.1//EN"
 "http://www.w3.org/Graphics/SVG/1.1/DTD/svg11.dtd">
<svg xmlns="http://www.w3.org/2000/svg" version="1.1"
  width="100%" height="100%" viewBox="0 0 1024 768"
  style="fill: none; font-family: Helvetica;
 font: Helvetica;
">

<!-- Creator: NGspice -->

<rect x="0" y="0" width="1024" height="768" fill="black" stroke="none"/>
<text stroke="none" fill="white" font-size="16" x="358" y="752">
time
</text>
<text stroke="none" fill="white" font-size="16" x="10" y="16">
tran1: ** sch_path: /home/ee24s053/ee5311-2025/tut6/rca/rca8b_tb.sch
</text>
<path stroke="white" d="M50 720l0 -671"/>
<text stroke="none" fill="white" font-size="16" x="35" y="728">
0.0
</text>
<path stroke="white" stroke-dasharray="1,2" d="M142 720l0 -671"/>
<text stroke="none" fill="white" font-size="16" x="127" y="728">
2.0
</text>
<path stroke="white" stroke-dasharray="1,2" d="M234 720l0 -671"/>
<text stroke="none" fill="white" font-size="16" x="219" y="728">
4.0
</text>
<path stroke="white" stroke-dasharray="1,2" d="M326 720l0 -671"/>
<text stroke="none" fill="white" font-size="16" x="311" y="728">
6.0
</text>
<path stroke="white" stroke-dasharray="1,2" d="M418 720l0 -671"/>
<text stroke="none" fill="white" font-size="16" x="403" y="728">
8.0
</text>
<path stroke="white" stroke-dasharray="1,2" d="M510 720l0 -671"/>
<text stroke="none" fill="white" font-size="16" x="490" y="728">
10.0
</text>
<path stroke="white" stroke-dasharray="1,2" d="M602 720l0 -671"/>
<text stroke="none" fill="white" font-size="16" x="582" y="728">
12.0
</text>
<path stroke="white" stroke-dasharray="1,2" d="M694 720l0 -671"/>
<text stroke="none" fill="white" font-size="16" x="674" y="728">
14.0
</text>
<path stroke="white" stroke-dasharray="1,2" d="M786 720l0 -671"/>
<text stroke="none" fill="white" font-size="16" x="766" y="728">
16.0
</text>
<path stroke="white" stroke-dasharray="1,2" d="M878 720l0 -671"/>
<text stroke="none" fill="white" font-size="16" x="858" y="728">
18.0
</text>
<path stroke="white" stroke-dasharray="1,2" d="M970 720l0 -671"/>
<text stroke="none" fill="white" font-size="16" x="950" y="728">
20.0
</text>
<text stroke="none" fill="white" font-size="16" x="614" y="752">
ns
</text>
<path stroke="white" stroke-dasharray="1,2" d="M50 720l920 0"/>
<text stroke="none" fill="white" font-size="16" x="8" y="728">
-0.2
</text>
<path stroke="white" d="M50 659l920 0"/>
<text stroke="none" fill="white" font-size="16" x="18" y="667">
0.0
</text>
<path stroke="white" stroke-dasharray="1,2" d="M50 598l920 0"/>
<text stroke="none" fill="white" font-size="16" x="18" y="606">
0.2
</text>
<path stroke="white" stroke-dasharray="1,2" d="M50 537l920 0"/>
<text stroke="none" fill="white" font-size="16" x="18" y="545">
0.4
</text>
<path stroke="white" stroke-dasharray="1,2" d="M50 476l920 0"/>
<text stroke="none" fill="white" font-size="16" x="18" y="484">
0.6
</text>
<path stroke="white" stroke-dasharray="1,2" d="M50 415l920 0"/>
<text stroke="none" fill="white" font-size="16" x="18" y="423">
0.8
</text>
<path stroke="white" stroke-dasharray="1,2" d="M50 354l920 0"/>
<text stroke="none" fill="white" font-size="16" x="18" y="362">
1.0
</text>
<path stroke="white" stroke-dasharray="1,2" d="M50 293l920 0"/>
<text stroke="none" fill="white" font-size="16" x="18" y="301">
1.2
</text>
<path stroke="white" stroke-dasharray="1,2" d="M50 232l920 0"/>
<text stroke="none" fill="white" font-size="16" x="18" y="240">
1.4
</text>
<path stroke="white" stroke-dasharray="1,2" d="M50 171l920 0"/>
<text stroke="none" fill="white" font-size="16" x="18" y="179">
1.6
</text>
<path stroke="white" stroke-dasharray="1,2" d="M50 110l920 0"/>
<text stroke="none" fill="white" font-size="16" x="18" y="118">
1.8
</text>
<path stroke="white" stroke-dasharray="1,2" d="M50 49l920 0"/>
<text stroke="none" fill="white" font-size="16" x="18" y="57">
2.0
</text>
<text stroke="none" fill="white" font-size="16" x="10" y="32">
V
</text>
<path stroke="red" d="M460 23l46 0"/>
<text stroke="none" fill="white" font-size="16" x="516" y="32">
v(s7_tap)
</text>
<path stroke="red" d="M50 659l23 0 0 -1 1 0 0 -1 1 0 0 -1 1 0 0 -2 1 0 0 -2 1 0 0 -1 1 0M79 653l0 -2M79 653l1 0M80 657l0 -4M80 657l1 0M81 660l0 -3M81 660l1 0M82 661l0 -1 1 0 0 -6 1 0 0 -17 1 -1 0 -26 1 -1 0 -31 1 -2 0 -35 1 -2 0 -38 1 -1 0 -39"/>
<path stroke="red" d="M89 461l1 -2 0 -37 1 -2 0 -38 1 -2 0 -39 1 -2 0 -33 1 -1 0 -34 1 -2 0 -33 1 -1 0 -28 1 0 0 -22 1 -1 0 -16 1 -1 0 -13 1 0 0 -10 1 0 0 -8 1 0 0 -6 1 0 0 -4 1 0 0 -4 1 0 0 -2 1 -1 0 -1 1 0 0 -2 1 0 0 -1 1 0 0 -1 1 0 0 -1 2 0"/>
<path stroke="red" d="M112 113l0 -1 4 0 0 -1 6 0M122 112l0 -1M122 112l1 0M123 114l0 -2M123 114l1 0M124 116l0 -2M124 116l1 0M125 119l0 -3M125 119l1 0M126 125l0 -6M126 125l1 0M127 138l0 -13M127 138l1 1M128 161l0 -22M128 161l1 1M129 170l0 -8M129 170l1 0"/>
<path stroke="red" d="M130 170l0 -10 1 -1 0 -10 1 0M132 161l0 -12M132 161l1 1M133 212l0 -50M133 212l1 3M134 294l0 -79M134 294l1 4M135 401l0 -103M135 401l1 5M136 519l0 -113M136 519l1 5M137 590l0 -66M137 590l1 2M138 629l0 -37M138 629l1 1M139 646l0 -16"/>
<path stroke="red" d="M139 646l1 0M140 652l0 -6M140 652l1 1M141 656l0 -3M141 656l1 0M142 657l0 -1M142 657l1 0M143 658l0 -1M143 658l3 0M146 659l0 -1M146 659l19 0 0 -1 1 0 0 -2 1 0 0 -1 1 0 0 -2 1 0 0 -7 1 -1 0 -13 1 0 0 -9 1 0M172 629l0 -7M172 629l1 0"/>
<path stroke="red" d="M173 640l0 -11M173 640l1 0M174 642l0 -3 1 0 0 -14 1 -1 0 -24 1 -2 0 -32 1 -1 0 -34 1 -2 0 -37 1 -2 0 -39 1 -2 0 -38 1 -2 0 -36 1 -2 0 -39 1 -2 0 -31 1 -2 0 -36 1 -2 0 -30 1 -1 0 -26 1 -1 0 -20 1 -1 0 -16 1 0 0 -12 1 0 0 -10"/>
<path stroke="red" d="M191 142l1 0 0 -7 1 -1 0 -5 1 0 0 -4 1 0 0 -3 1 0 0 -3 1 0 0 -2 1 0 0 -1 1 0 0 -1 1 0 0 -1 1 0 0 -1 2 0 0 -1 4 0 0 -1 7 0M214 112l0 -1M214 112l1 0M215 114l0 -2M215 114l1 0M216 116l0 -2M216 116l1 0M217 119l0 -3M217 119l1 0"/>
<path stroke="red" d="M218 125l0 -6M218 125l1 0M219 137l0 -12M219 137l1 1M220 158l0 -20M220 158l1 0M221 162l0 -4M221 161l1 -1 0 -10 1 -1 0 -8 1 0M224 153l0 -12M224 153l1 2M225 206l0 -51M225 206l1 3M226 289l0 -80M226 289l1 5M227 397l0 -103M227 397l1 6"/>
<path stroke="red" d="M228 517l0 -114M228 517l1 5M229 589l0 -67M229 589l1 2M230 628l0 -37M230 628l1 2M231 646l0 -16M231 646l1 0M232 652l0 -6M232 652l1 1M233 656l0 -3M233 656l1 0M234 657l0 -1M234 657l1 0M235 658l0 -1M235 658l3 0M238 659l0 -1M238 659l19 0"/>
<path stroke="red" d="M257 659l0 -1 1 0 0 -2 1 0 0 -1 1 0 0 -2 1 0 0 -7 1 -1 0 -13 1 0 0 -9 1 0M264 629l0 -7M264 629l1 0M265 640l0 -11M265 640l1 0M266 642l0 -3 1 0 0 -14 1 -1 0 -24 1 -2 0 -32 1 -1 0 -34 1 -2 0 -37 1 -2 0 -39 1 -2 0 -38 1 -2 0 -36"/>
<path stroke="red" d="M274 373l1 -2 0 -39 1 -2 0 -31 1 -2 0 -36 1 -2 0 -30 1 -1 0 -26 1 -1 0 -20 1 -1 0 -16 1 0 0 -12 1 0 0 -10 1 0 0 -7 1 -1 0 -5 1 0 0 -4 1 0 0 -3 1 0 0 -3 1 0 0 -2 1 0 0 -1 1 0 0 -1 1 0 0 -1 1 0 0 -1 2 0 0 -1 4 0 0 -1 7 0M306 112l0 -1"/>
<path stroke="red" d="M306 112l1 0M307 114l0 -2M307 114l1 0M308 116l0 -2M308 116l1 0M309 119l0 -3M309 119l1 0M310 125l0 -6M310 125l1 0M311 137l0 -12M311 137l1 1M312 158l0 -20M312 158l1 0M313 162l0 -4M313 161l1 -1 0 -10 1 -1 0 -8 1 0M316 153l0 -12"/>
<path stroke="red" d="M316 153l1 2M317 206l0 -51M317 206l1 3M318 289l0 -80M318 289l1 5M319 397l0 -103M319 397l1 6M320 517l0 -114M320 517l1 5M321 589l0 -67M321 589l1 2M322 628l0 -37M322 628l1 2M323 646l0 -16M323 646l1 0M324 652l0 -6M324 652l1 1"/>
<path stroke="red" d="M325 656l0 -3M325 656l1 0M326 657l0 -1M326 657l1 0M327 658l0 -1M327 658l3 0M330 659l0 -1M330 659l19 0 0 -1 1 0 0 -2 1 0 0 -1 1 0 0 -2 1 0 0 -7 1 -1 0 -13 1 0 0 -9 1 0M356 629l0 -7M356 629l1 0M357 640l0 -11M357 640l1 0M358 642l0 -3"/>
<path stroke="red" d="M358 639l1 0 0 -14 1 -1 0 -24 1 -2 0 -32 1 -1 0 -34 1 -2 0 -37 1 -2 0 -39 1 -2 0 -38 1 -2 0 -36 1 -2 0 -39 1 -2 0 -31 1 -2 0 -36 1 -2 0 -30 1 -1 0 -26 1 -1 0 -20 1 -1 0 -16 1 0 0 -12 1 0 0 -10 1 0 0 -7 1 -1 0 -5 1 0 0 -4"/>
<path stroke="red" d="M378 125l1 0 0 -3 1 0 0 -3 1 0 0 -2 1 0 0 -1 1 0 0 -1 1 0 0 -1 1 0 0 -1 2 0 0 -1 4 0 0 -1 7 0M398 112l0 -1M398 112l1 0M399 114l0 -2M399 114l1 0M400 116l0 -2M400 116l1 0M401 119l0 -3M401 119l1 0M402 125l0 -6M402 125l1 0M403 137l0 -12"/>
<path stroke="red" d="M403 137l1 1M404 158l0 -20M404 158l1 0M405 162l0 -4M405 161l1 -1 0 -10 1 -1 0 -8 1 0M408 153l0 -12M408 153l1 2M409 206l0 -51M409 206l1 3M410 289l0 -80M410 289l1 5M411 397l0 -103M411 397l1 6M412 517l0 -114M412 517l1 5M413 589l0 -67"/>
<path stroke="red" d="M413 589l1 2M414 628l0 -37M414 628l1 2M415 646l0 -16M415 646l1 0M416 652l0 -6M416 652l1 1M417 656l0 -3M417 656l1 0M418 657l0 -1M418 657l1 0M419 658l0 -1M419 658l3 0M422 659l0 -1M422 659l19 0 0 -1 1 0 0 -2 1 0 0 -1 1 0 0 -2"/>
<path stroke="red" d="M444 653l1 0 0 -7 1 -1 0 -13 1 0 0 -9 1 0M448 629l0 -7M448 629l1 0M449 640l0 -11M449 640l1 0M450 642l0 -3 1 0 0 -14 1 -1 0 -24 1 -2 0 -32 1 -1 0 -34 1 -2 0 -37 1 -2 0 -39 1 -2 0 -38 1 -2 0 -36 1 -2 0 -39 1 -2 0 -31 1 -2"/>
<path stroke="red" d="M461 297l0 -36 1 -2 0 -30 1 -1 0 -26 1 -1 0 -20 1 -1 0 -16 1 0 0 -12 1 0 0 -10 1 0 0 -7 1 -1 0 -5 1 0 0 -4 1 0 0 -3 1 0 0 -3 1 0 0 -2 1 0 0 -1 1 0 0 -1 1 0 0 -1 1 0 0 -1 2 0 0 -1 4 0 0 -1 7 0M490 112l0 -1M490 112l1 0M491 114l0 -2"/>
<path stroke="red" d="M491 114l1 0M492 116l0 -2M492 116l1 0M493 119l0 -3M493 119l1 0M494 125l0 -6M494 125l1 0M495 137l0 -12M495 137l1 1M496 158l0 -20M496 158l1 0M497 162l0 -4M497 161l1 -1 0 -10 1 -1 0 -8 1 0M500 153l0 -12M500 153l1 2M501 206l0 -51"/>
<path stroke="red" d="M501 206l1 3M502 289l0 -80M502 289l1 5M503 397l0 -103M503 397l1 6M504 517l0 -114M504 517l1 5M505 589l0 -67M505 589l1 2M506 628l0 -37M506 628l1 2M507 646l0 -16M507 646l1 0M508 652l0 -6M508 652l1 1M509 656l0 -3M509 656l1 0"/>
<path stroke="red" d="M510 657l0 -1M510 657l1 0M511 658l0 -1M511 658l3 0M514 659l0 -1M514 659l19 0 0 -1 1 0 0 -2 1 0 0 -1 1 0 0 -2 1 0 0 -7 1 -1 0 -13 1 0 0 -9 1 0M540 629l0 -7M540 629l1 0M541 640l0 -11M541 640l1 0M542 642l0 -3 1 0 0 -14 1 -1"/>
<path stroke="red" d="M544 624l0 -24 1 -2 0 -32 1 -1 0 -34 1 -2 0 -37 1 -2 0 -39 1 -2 0 -38 1 -2 0 -36 1 -2 0 -39 1 -2 0 -31 1 -2 0 -36 1 -2 0 -30 1 -1 0 -26 1 -1 0 -20 1 -1 0 -16 1 0 0 -12 1 0 0 -10 1 0 0 -7 1 -1 0 -5 1 0 0 -4 1 0 0 -3 1 0 0 -3"/>
<path stroke="red" d="M564 119l1 0 0 -2 1 0 0 -1 1 0 0 -1 1 0 0 -1 1 0 0 -1 2 0 0 -1 4 0 0 -1 7 0M582 112l0 -1M582 112l1 0M583 114l0 -2M583 114l1 0M584 116l0 -2M584 116l1 0M585 119l0 -3M585 119l1 0M586 125l0 -6M586 125l1 0M587 137l0 -12M587 137l1 1"/>
<path stroke="red" d="M588 158l0 -20M588 158l1 0M589 162l0 -4M589 161l1 -1 0 -10 1 -1 0 -8 1 0M592 153l0 -12M592 153l1 2M593 206l0 -51M593 206l1 3M594 289l0 -80M594 289l1 5M595 397l0 -103M595 397l1 6M596 517l0 -114M596 517l1 5M597 589l0 -67M597 589l1 2"/>
<path stroke="red" d="M598 628l0 -37M598 628l1 2M599 646l0 -16M599 646l1 0M600 652l0 -6M600 652l1 1M601 656l0 -3M601 656l1 0M602 657l0 -1M602 657l1 0M603 658l0 -1M603 658l3 0M606 659l0 -1M606 659l19 0 0 -1 1 0 0 -2 1 0 0 -1 1 0 0 -2 1 0 0 -7"/>
<path stroke="red" d="M629 646l1 -1 0 -13 1 0 0 -9 1 0M632 629l0 -7M632 629l1 0M633 640l0 -11M633 640l1 0M634 642l0 -3 1 0 0 -14 1 -1 0 -24 1 -2 0 -32 1 -1 0 -34 1 -2 0 -37 1 -2 0 -39 1 -2 0 -38 1 -2 0 -36 1 -2 0 -39 1 -2 0 -31 1 -2 0 -36 1 -2"/>
<path stroke="red" d="M646 259l0 -30 1 -1 0 -26 1 -1 0 -20 1 -1 0 -16 1 0 0 -12 1 0 0 -10 1 0 0 -7 1 -1 0 -5 1 0 0 -4 1 0 0 -3 1 0 0 -3 1 0 0 -2 1 0 0 -1 1 0 0 -1 1 0 0 -1 1 0 0 -1 2 0 0 -1 4 0 0 -1 7 0M674 112l0 -1M674 112l1 0M675 114l0 -2M675 114l1 0"/>
<path stroke="red" d="M676 116l0 -2M676 116l1 0M677 119l0 -3M677 119l1 0M678 125l0 -6M678 125l1 0M679 137l0 -12M679 137l1 1M680 158l0 -20M680 158l1 0M681 162l0 -4M681 161l1 -1 0 -10 1 -1 0 -8 1 0M684 153l0 -12M684 153l1 2M685 206l0 -51M685 206l1 3"/>
<path stroke="red" d="M686 289l0 -80M686 289l1 5M687 397l0 -103M687 397l1 6M688 517l0 -114M688 517l1 5M689 589l0 -67M689 589l1 2M690 628l0 -37M690 628l1 2M691 646l0 -16M691 646l1 0M692 652l0 -6M692 652l1 1M693 656l0 -3M693 656l1 0M694 657l0 -1"/>
<path stroke="red" d="M694 657l1 0M695 658l0 -1M695 658l3 0M698 659l0 -1M698 659l19 0 0 -1 1 0 0 -2 1 0 0 -1 1 0 0 -2 1 0 0 -7 1 -1 0 -13 1 0 0 -9 1 0M724 629l0 -7M724 629l1 0M725 640l0 -11M725 640l1 0M726 642l0 -3 1 0 0 -14 1 -1 0 -24 1 -2 0 -32"/>
<path stroke="red" d="M729 566l1 -1 0 -34 1 -2 0 -37 1 -2 0 -39 1 -2 0 -38 1 -2 0 -36 1 -2 0 -39 1 -2 0 -31 1 -2 0 -36 1 -2 0 -30 1 -1 0 -26 1 -1 0 -20 1 -1 0 -16 1 0 0 -12 1 0 0 -10 1 0 0 -7 1 -1 0 -5 1 0 0 -4 1 0 0 -3 1 0 0 -3 1 0 0 -2 1 0"/>
<path stroke="red" d="M750 117l0 -1 1 0 0 -1 1 0 0 -1 1 0 0 -1 2 0 0 -1 4 0 0 -1 7 0M766 112l0 -1M766 112l1 0M767 114l0 -2M767 114l1 0M768 116l0 -2M768 116l1 0M769 119l0 -3M769 119l1 0M770 125l0 -6M770 125l1 0M771 137l0 -12M771 137l1 1M772 158l0 -20"/>
<path stroke="red" d="M772 158l1 0M773 162l0 -4M773 161l1 -1 0 -10 1 -1 0 -8 1 0M776 153l0 -12M776 153l1 2M777 206l0 -51M777 206l1 3M778 289l0 -80M778 289l1 5M779 397l0 -103M779 397l1 6M780 517l0 -114M780 517l1 5M781 589l0 -67M781 589l1 2M782 628l0 -37"/>
<path stroke="red" d="M782 628l1 2M783 646l0 -16M783 646l1 0M784 652l0 -6M784 652l1 1M785 656l0 -3M785 656l1 0M786 657l0 -1M786 657l1 0M787 658l0 -1M787 658l3 0M790 659l0 -1M790 659l19 0 0 -1 1 0 0 -2 1 0 0 -1 1 0 0 -2 1 0 0 -7 1 -1 0 -13 1 0"/>
<path stroke="red" d="M815 632l0 -9 1 0M816 629l0 -7M816 629l1 0M817 640l0 -11M817 640l1 0M818 642l0 -3 1 0 0 -14 1 -1 0 -24 1 -2 0 -32 1 -1 0 -34 1 -2 0 -37 1 -2 0 -39 1 -2 0 -38 1 -2 0 -36 1 -2 0 -39 1 -2 0 -31 1 -2 0 -36 1 -2 0 -30 1 -1 0 -26"/>
<path stroke="red" d="M831 202l1 -1 0 -20 1 -1 0 -16 1 0 0 -12 1 0 0 -10 1 0 0 -7 1 -1 0 -5 1 0 0 -4 1 0 0 -3 1 0 0 -3 1 0 0 -2 1 0 0 -1 1 0 0 -1 1 0 0 -1 1 0 0 -1 2 0 0 -1 4 0 0 -1 7 0M858 112l0 -1M858 112l1 0M859 114l0 -2M859 114l1 0M860 116l0 -2"/>
<path stroke="red" d="M860 116l1 0M861 119l0 -3M861 119l1 0M862 125l0 -6M862 125l1 0M863 137l0 -12M863 137l1 1M864 158l0 -20M864 158l1 0M865 162l0 -4M865 161l1 -1 0 -10 1 -1 0 -8 1 0M868 153l0 -12M868 153l1 2M869 206l0 -51M869 206l1 3M870 289l0 -80"/>
<path stroke="red" d="M870 289l1 5M871 397l0 -103M871 397l1 6M872 517l0 -114M872 517l1 5M873 589l0 -67M873 589l1 2M874 628l0 -37M874 628l1 2M875 646l0 -16M875 646l1 0M876 652l0 -6M876 652l1 1M877 656l0 -3M877 656l1 0M878 657l0 -1M878 657l1 0"/>
<path stroke="red" d="M879 658l0 -1M879 658l3 0M882 659l0 -1M882 659l19 0 0 -1 1 0 0 -2 1 0 0 -1 1 0 0 -2 1 0 0 -7 1 -1 0 -13 1 0 0 -9 1 0M908 629l0 -7M908 629l1 0M909 640l0 -11M909 640l1 0M910 642l0 -3 1 0 0 -14 1 -1 0 -24 1 -2 0 -32 1 -1 0 -34"/>
<path stroke="red" d="M914 531l1 -2 0 -37 1 -2 0 -39 1 -2 0 -38 1 -2 0 -36 1 -2 0 -39 1 -2 0 -31 1 -2 0 -36 1 -2 0 -30 1 -1 0 -26 1 -1 0 -20 1 -1 0 -16 1 0 0 -12 1 0 0 -10 1 0 0 -7 1 -1 0 -5 1 0 0 -4 1 0 0 -3 1 0 0 -3 1 0 0 -2 1 0 0 -1 1 0 0 -1"/>
<path stroke="red" d="M935 115l1 0 0 -1 1 0 0 -1 2 0 0 -1 4 0 0 -1 7 0M950 112l0 -1M950 112l1 0M951 114l0 -2M951 114l1 0M952 116l0 -2M952 116l1 0M953 119l0 -3M953 119l1 0M954 125l0 -6M954 125l1 0M955 137l0 -12M955 137l1 1M956 158l0 -20M956 158l1 0"/>
<path stroke="red" d="M957 162l0 -4M957 161l1 -1 0 -10 1 -1 0 -8 1 0M960 153l0 -12M960 153l1 2M961 206l0 -51M961 206l1 3M962 289l0 -80M962 289l1 5M963 397l0 -103M963 397l1 6M964 517l0 -114M964 517l1 5M965 589l0 -67M965 589l1 2M966 628l0 -37M966 628l1 2"/>
<path stroke="red" d="M967 646l0 -16M967 646l1 0M968 652l0 -6M968 652l1 1M969 656l0 -3M969 656l1 0"/>
<path stroke="blue" d="M50 23l46 0"/>
<text stroke="none" fill="white" font-size="16" x="106" y="32">
v(cout_tap)
</text>
<path stroke="blue" d="M50 659l26 0 0 -1 1 0M77 659l0 -1M77 659l1 0M78 660l0 -1M78 660l1 0M79 663l0 -3M79 663l1 0M80 665l0 -2M80 665l1 0M81 668l0 -3M81 668l1 0M82 669l0 -1M82 669l1 -1 0 -13 1 -1 0 -44 1 -2 0 -76 1 -4 0 -88 1 -4 0 -81 1 -3 0 -53"/>
<path stroke="blue" d="M88 299l1 -2 0 -31 1 -1 0 -30 1 -1 0 -27 1 -1 0 -24 1 -1 0 -19 1 0 0 -13 1 -1 0 -10 1 0 0 -8 1 0 0 -5 1 -1 0 -3 1 0 0 -3 1 0 0 -2 1 0 0 -2 1 0 0 -1 1 0 0 -1 2 0 0 -1 3 0 0 -1 19 0 0 -1 1 0 0 -3 1 0 0 -4 1 -1 0 -4 1 0 0 -4"/>
<path stroke="blue" d="M131 93l1 0M132 101l0 -8M132 101l1 1M133 132l0 -30M133 132l1 3M134 194l0 -59M134 194l1 4M135 275l0 -77M135 275l1 4M136 364l0 -85M136 364l1 5M137 476l0 -107M137 476l1 6M138 572l0 -90M138 572l1 3M139 620l0 -45M139 620l1 2"/>
<path stroke="blue" d="M140 642l0 -20M140 642l1 0M141 649l0 -7M141 649l1 1M142 651l0 -1M142 651l1 0M143 653l0 -2M143 653l1 0M144 654l0 -1M144 654l1 0M145 656l0 -2M145 656l1 0M146 657l0 -1M146 657l2 0M148 658l0 -1M148 658l4 0M152 659l0 -1M152 659l14 0"/>
<path stroke="blue" d="M166 659l0 -1 3 0M169 659l0 -1M169 659l1 0M170 661l0 -2M170 661l1 0M171 664l0 -3M171 664l1 0M172 666l0 -2M172 666l1 1M173 669l0 -2M173 669l1 0 0 -6 1 0 0 -31 1 -3 0 -67 1 -4 0 -93 1 -5 0 -85 1 -4 0 -64 1 -2 0 -36 1 -2 0 -33"/>
<path stroke="blue" d="M181 234l1 -1 0 -28 1 -2 0 -23 1 -1 0 -18 1 -1 0 -13 1 -1 0 -9 1 0 0 -7 1 -1 0 -5 1 0 0 -4 1 0 0 -2 1 -1 0 -2 1 0 0 -1 1 0 0 -1 1 0 0 -1 2 0 0 -1 3 0 0 -1 20 0 0 -1 1 0 0 -3 1 0 0 -5 1 0 0 -4 1 -1 0 -3 1 0M224 102l0 -9"/>
<path stroke="blue" d="M224 102l1 0M225 134l0 -32M225 134l1 3M226 197l0 -60M226 197l1 4M227 278l0 -77M227 278l1 4M228 368l0 -86M228 368l1 5M229 482l0 -109M229 482l1 5M230 575l0 -88M230 575l1 2M231 622l0 -45M231 622l1 1M232 642l0 -19M232 642l1 1"/>
<path stroke="blue" d="M233 650l0 -7M233 650l1 0M234 651l0 -1M234 651l1 0M235 653l0 -2M235 653l1 0M236 654l0 -1M236 654l1 0M237 656l0 -2M237 656l1 0M238 657l0 -1M238 657l2 0M240 658l0 -1M240 658l4 0M244 659l0 -1M244 659l14 0 0 -1 3 0M261 659l0 -1"/>
<path stroke="blue" d="M261 659l1 0M262 661l0 -2M262 661l1 0M263 664l0 -3M263 664l1 0M264 666l0 -2M264 666l1 1M265 669l0 -2M265 669l1 0 0 -6 1 0 0 -31 1 -3 0 -67 1 -4 0 -93 1 -5 0 -85 1 -4 0 -64 1 -2 0 -36 1 -2 0 -33 1 -1 0 -28 1 -2 0 -23 1 -1"/>
<path stroke="blue" d="M276 179l0 -18 1 -1 0 -13 1 -1 0 -9 1 0 0 -7 1 -1 0 -5 1 0 0 -4 1 0 0 -2 1 -1 0 -2 1 0 0 -1 1 0 0 -1 1 0 0 -1 2 0 0 -1 3 0 0 -1 20 0 0 -1 1 0 0 -3 1 0 0 -5 1 0 0 -4 1 -1 0 -3 1 0M316 102l0 -9M316 102l1 0M317 134l0 -32M317 134l1 3"/>
<path stroke="blue" d="M318 197l0 -60M318 197l1 4M319 278l0 -77M319 278l1 4M320 368l0 -86M320 368l1 5M321 482l0 -109M321 482l1 5M322 575l0 -88M322 575l1 2M323 622l0 -45M323 622l1 1M324 642l0 -19M324 642l1 1M325 650l0 -7M325 650l1 0M326 651l0 -1"/>
<path stroke="blue" d="M326 651l1 0M327 653l0 -2M327 653l1 0M328 654l0 -1M328 654l1 0M329 656l0 -2M329 656l1 0M330 657l0 -1M330 657l2 0M332 658l0 -1M332 658l4 0M336 659l0 -1M336 659l14 0 0 -1 3 0M353 659l0 -1M353 659l1 0M354 661l0 -2M354 661l1 0"/>
<path stroke="blue" d="M355 664l0 -3M355 664l1 0M356 666l0 -2M356 666l1 1M357 669l0 -2M357 669l1 0 0 -6 1 0 0 -31 1 -3 0 -67 1 -4 0 -93 1 -5 0 -85 1 -4 0 -64 1 -2 0 -36 1 -2 0 -33 1 -1 0 -28 1 -2 0 -23 1 -1 0 -18 1 -1 0 -13 1 -1 0 -9 1 0 0 -7"/>
<path stroke="blue" d="M371 130l1 -1 0 -5 1 0 0 -4 1 0 0 -2 1 -1 0 -2 1 0 0 -1 1 0 0 -1 1 0 0 -1 2 0 0 -1 3 0 0 -1 20 0 0 -1 1 0 0 -3 1 0 0 -5 1 0 0 -4 1 -1 0 -3 1 0M408 102l0 -9M408 102l1 0M409 134l0 -32M409 134l1 3M410 197l0 -60M410 197l1 4"/>
<path stroke="blue" d="M411 278l0 -77M411 278l1 4M412 368l0 -86M412 368l1 5M413 482l0 -109M413 482l1 5M414 575l0 -88M414 575l1 2M415 622l0 -45M415 622l1 1M416 642l0 -19M416 642l1 1M417 650l0 -7M417 650l1 0M418 651l0 -1M418 651l1 0M419 653l0 -2"/>
<path stroke="blue" d="M419 653l1 0M420 654l0 -1M420 654l1 0M421 656l0 -2M421 656l1 0M422 657l0 -1M422 657l2 0M424 658l0 -1M424 658l4 0M428 659l0 -1M428 659l14 0 0 -1 3 0M445 659l0 -1M445 659l1 0M446 661l0 -2M446 661l1 0M447 664l0 -3M447 664l1 0"/>
<path stroke="blue" d="M448 666l0 -2M448 666l1 1M449 669l0 -2M449 669l1 0 0 -6 1 0 0 -31 1 -3 0 -67 1 -4 0 -93 1 -5 0 -85 1 -4 0 -64 1 -2 0 -36 1 -2 0 -33 1 -1 0 -28 1 -2 0 -23 1 -1 0 -18 1 -1 0 -13 1 -1 0 -9 1 0 0 -7 1 -1 0 -5 1 0 0 -4 1 0 0 -2"/>
<path stroke="blue" d="M466 118l1 -1 0 -2 1 0 0 -1 1 0 0 -1 1 0 0 -1 2 0 0 -1 3 0 0 -1 20 0 0 -1 1 0 0 -3 1 0 0 -5 1 0 0 -4 1 -1 0 -3 1 0M500 102l0 -9M500 102l1 0M501 134l0 -32M501 134l1 3M502 197l0 -60M502 197l1 4M503 278l0 -77M503 278l1 4M504 368l0 -86"/>
<path stroke="blue" d="M504 368l1 5M505 482l0 -109M505 482l1 5M506 575l0 -88M506 575l1 2M507 622l0 -45M507 622l1 1M508 642l0 -19M508 642l1 1M509 650l0 -7M509 650l1 0M510 651l0 -1M510 651l1 0M511 653l0 -2M511 653l1 0M512 654l0 -1M512 654l1 0M513 656l0 -2"/>
<path stroke="blue" d="M513 656l1 0M514 657l0 -1M514 657l2 0M516 658l0 -1M516 658l4 0M520 659l0 -1M520 659l14 0 0 -1 3 0M537 659l0 -1M537 659l1 0M538 661l0 -2M538 661l1 0M539 664l0 -3M539 664l1 0M540 666l0 -2M540 666l1 1M541 669l0 -2M541 669l1 0"/>
<path stroke="blue" d="M542 669l0 -6 1 0 0 -31 1 -3 0 -67 1 -4 0 -93 1 -5 0 -85 1 -4 0 -64 1 -2 0 -36 1 -2 0 -33 1 -1 0 -28 1 -2 0 -23 1 -1 0 -18 1 -1 0 -13 1 -1 0 -9 1 0 0 -7 1 -1 0 -5 1 0 0 -4 1 0 0 -2 1 -1 0 -2 1 0 0 -1 1 0 0 -1 1 0 0 -1 2 0"/>
<path stroke="blue" d="M564 112l0 -1 3 0 0 -1 20 0 0 -1 1 0 0 -3 1 0 0 -5 1 0 0 -4 1 -1 0 -3 1 0M592 102l0 -9M592 102l1 0M593 134l0 -32M593 134l1 3M594 197l0 -60M594 197l1 4M595 278l0 -77M595 278l1 4M596 368l0 -86M596 368l1 5M597 482l0 -109M597 482l1 5"/>
<path stroke="blue" d="M598 575l0 -88M598 575l1 2M599 622l0 -45M599 622l1 1M600 642l0 -19M600 642l1 1M601 650l0 -7M601 650l1 0M602 651l0 -1M602 651l1 0M603 653l0 -2M603 653l1 0M604 654l0 -1M604 654l1 0M605 656l0 -2M605 656l1 0M606 657l0 -1M606 657l2 0"/>
<path stroke="blue" d="M608 658l0 -1M608 658l4 0M612 659l0 -1M612 659l14 0 0 -1 3 0M629 659l0 -1M629 659l1 0M630 661l0 -2M630 661l1 0M631 664l0 -3M631 664l1 0M632 666l0 -2M632 666l1 1M633 669l0 -2M633 669l1 0 0 -6 1 0 0 -31 1 -3 0 -67 1 -4 0 -93"/>
<path stroke="blue" d="M637 465l1 -5 0 -85 1 -4 0 -64 1 -2 0 -36 1 -2 0 -33 1 -1 0 -28 1 -2 0 -23 1 -1 0 -18 1 -1 0 -13 1 -1 0 -9 1 0 0 -7 1 -1 0 -5 1 0 0 -4 1 0 0 -2 1 -1 0 -2 1 0 0 -1 1 0 0 -1 1 0 0 -1 2 0 0 -1 3 0 0 -1 20 0 0 -1 1 0 0 -3 1 0"/>
<path stroke="blue" d="M681 106l0 -5 1 0 0 -4 1 -1 0 -3 1 0M684 102l0 -9M684 102l1 0M685 134l0 -32M685 134l1 3M686 197l0 -60M686 197l1 4M687 278l0 -77M687 278l1 4M688 368l0 -86M688 368l1 5M689 482l0 -109M689 482l1 5M690 575l0 -88M690 575l1 2"/>
<path stroke="blue" d="M691 622l0 -45M691 622l1 1M692 642l0 -19M692 642l1 1M693 650l0 -7M693 650l1 0M694 651l0 -1M694 651l1 0M695 653l0 -2M695 653l1 0M696 654l0 -1M696 654l1 0M697 656l0 -2M697 656l1 0M698 657l0 -1M698 657l2 0M700 658l0 -1M700 658l4 0"/>
<path stroke="blue" d="M704 659l0 -1M704 659l14 0 0 -1 3 0M721 659l0 -1M721 659l1 0M722 661l0 -2M722 661l1 0M723 664l0 -3M723 664l1 0M724 666l0 -2M724 666l1 1M725 669l0 -2M725 669l1 0 0 -6 1 0 0 -31 1 -3 0 -67 1 -4 0 -93 1 -5 0 -85 1 -4 0 -64"/>
<path stroke="blue" d="M731 307l1 -2 0 -36 1 -2 0 -33 1 -1 0 -28 1 -2 0 -23 1 -1 0 -18 1 -1 0 -13 1 -1 0 -9 1 0 0 -7 1 -1 0 -5 1 0 0 -4 1 0 0 -2 1 -1 0 -2 1 0 0 -1 1 0 0 -1 1 0 0 -1 2 0 0 -1 3 0 0 -1 20 0 0 -1 1 0 0 -3 1 0 0 -5 1 0 0 -4 1 -1"/>
<path stroke="blue" d="M775 96l0 -3 1 0M776 102l0 -9M776 102l1 0M777 134l0 -32M777 134l1 3M778 197l0 -60M778 197l1 4M779 278l0 -77M779 278l1 4M780 368l0 -86M780 368l1 5M781 482l0 -109M781 482l1 5M782 575l0 -88M782 575l1 2M783 622l0 -45M783 622l1 1"/>
<path stroke="blue" d="M784 642l0 -19M784 642l1 1M785 650l0 -7M785 650l1 0M786 651l0 -1M786 651l1 0M787 653l0 -2M787 653l1 0M788 654l0 -1M788 654l1 0M789 656l0 -2M789 656l1 0M790 657l0 -1M790 657l2 0M792 658l0 -1M792 658l4 0M796 659l0 -1M796 659l14 0"/>
<path stroke="blue" d="M810 659l0 -1 3 0M813 659l0 -1M813 659l1 0M814 661l0 -2M814 661l1 0M815 664l0 -3M815 664l1 0M816 666l0 -2M816 666l1 1M817 669l0 -2M817 669l1 0 0 -6 1 0 0 -31 1 -3 0 -67 1 -4 0 -93 1 -5 0 -85 1 -4 0 -64 1 -2 0 -36 1 -2 0 -33"/>
<path stroke="blue" d="M825 234l1 -1 0 -28 1 -2 0 -23 1 -1 0 -18 1 -1 0 -13 1 -1 0 -9 1 0 0 -7 1 -1 0 -5 1 0 0 -4 1 0 0 -2 1 -1 0 -2 1 0 0 -1 1 0 0 -1 1 0 0 -1 2 0 0 -1 3 0 0 -1 20 0 0 -1 1 0 0 -3 1 0 0 -5 1 0 0 -4 1 -1 0 -3 1 0M868 102l0 -9"/>
<path stroke="blue" d="M868 102l1 0M869 134l0 -32M869 134l1 3M870 197l0 -60M870 197l1 4M871 278l0 -77M871 278l1 4M872 368l0 -86M872 368l1 5M873 482l0 -109M873 482l1 5M874 575l0 -88M874 575l1 2M875 622l0 -45M875 622l1 1M876 642l0 -19M876 642l1 1"/>
<path stroke="blue" d="M877 650l0 -7M877 650l1 0M878 651l0 -1M878 651l1 0M879 653l0 -2M879 653l1 0M880 654l0 -1M880 654l1 0M881 656l0 -2M881 656l1 0M882 657l0 -1M882 657l2 0M884 658l0 -1M884 658l4 0M888 659l0 -1M888 659l14 0 0 -1 3 0M905 659l0 -1"/>
<path stroke="blue" d="M905 659l1 0M906 661l0 -2M906 661l1 0M907 664l0 -3M907 664l1 0M908 666l0 -2M908 666l1 1M909 669l0 -2M909 669l1 0 0 -6 1 0 0 -31 1 -3 0 -67 1 -4 0 -93 1 -5 0 -85 1 -4 0 -64 1 -2 0 -36 1 -2 0 -33 1 -1 0 -28 1 -2 0 -23 1 -1"/>
<path stroke="blue" d="M920 179l0 -18 1 -1 0 -13 1 -1 0 -9 1 0 0 -7 1 -1 0 -5 1 0 0 -4 1 0 0 -2 1 -1 0 -2 1 0 0 -1 1 0 0 -1 1 0 0 -1 2 0 0 -1 3 0 0 -1 20 0 0 -1 1 0 0 -3 1 0 0 -5 1 0 0 -4 1 -1 0 -3 1 0M960 102l0 -9M960 102l1 0M961 134l0 -32M961 134l1 3"/>
<path stroke="blue" d="M962 197l0 -60M962 197l1 4M963 278l0 -77M963 278l1 4M964 368l0 -86M964 368l1 5M965 482l0 -109M965 482l1 5M966 575l0 -88M966 575l1 2M967 622l0 -45M967 622l1 1M968 642l0 -19M968 642l1 1M969 650l0 -7M969 650l1 0M970 651l0 -1"/>
</svg>
