<?xml version="1.0" standalone="yes"?>
<!DOCTYPE svg PUBLIC "-//W3C//DTD SVG 1.1//EN"
 "http://www.w3.org/Graphics/SVG/1.1/DTD/svg11.dtd">
<svg xmlns="http://www.w3.org/2000/svg" version="1.1"
  width="100%" height="100%" viewBox="0 0 1024 768"
  style="fill: none; font-family: Helvetica;
 font: Helvetica;
">

<!-- Creator: NGspice -->

<rect x="0" y="0" width="1024" height="768" fill="black" stroke="none"/>
<text stroke="none" fill="white" font-size="16" x="358" y="752">
v_vdd
</text>
<text stroke="none" fill="white" font-size="16" x="10" y="16">
tran9: Constant values
</text>
<path stroke="white" stroke-dasharray="1,2" d="M50 720l0 -672"/>
<text stroke="none" fill="white" font-size="16" x="30" y="728">
1.00
</text>
<path stroke="white" stroke-dasharray="1,2" d="M165 720l0 -672"/>
<text stroke="none" fill="white" font-size="16" x="145" y="728">
1.10
</text>
<path stroke="white" stroke-dasharray="1,2" d="M280 720l0 -672"/>
<text stroke="none" fill="white" font-size="16" x="260" y="728">
1.20
</text>
<path stroke="white" stroke-dasharray="1,2" d="M395 720l0 -672"/>
<text stroke="none" fill="white" font-size="16" x="375" y="728">
1.30
</text>
<path stroke="white" stroke-dasharray="1,2" d="M510 720l0 -672"/>
<text stroke="none" fill="white" font-size="16" x="490" y="728">
1.40
</text>
<path stroke="white" stroke-dasharray="1,2" d="M625 720l0 -672"/>
<text stroke="none" fill="white" font-size="16" x="605" y="728">
1.50
</text>
<path stroke="white" stroke-dasharray="1,2" d="M740 720l0 -672"/>
<text stroke="none" fill="white" font-size="16" x="720" y="728">
1.60
</text>
<path stroke="white" stroke-dasharray="1,2" d="M855 720l0 -672"/>
<text stroke="none" fill="white" font-size="16" x="835" y="728">
1.70
</text>
<path stroke="white" stroke-dasharray="1,2" d="M970 720l0 -672"/>
<text stroke="none" fill="white" font-size="16" x="950" y="728">
1.80
</text>
<text stroke="none" fill="white" font-size="16" x="614" y="752">
     
</text>
<path stroke="white" stroke-dasharray="1,2" d="M50 720l920 0"/>
<text stroke="none" fill="white" font-size="16" x="18" y="728">
0.4
</text>
<path stroke="white" stroke-dasharray="1,2" d="M50 672l920 0"/>
<text stroke="none" fill="white" font-size="16" x="18" y="680">
0.6
</text>
<path stroke="white" stroke-dasharray="1,2" d="M50 624l920 0"/>
<text stroke="none" fill="white" font-size="16" x="18" y="632">
0.8
</text>
<path stroke="white" stroke-dasharray="1,2" d="M50 576l920 0"/>
<text stroke="none" fill="white" font-size="16" x="18" y="584">
1.0
</text>
<path stroke="white" stroke-dasharray="1,2" d="M50 528l920 0"/>
<text stroke="none" fill="white" font-size="16" x="18" y="536">
1.2
</text>
<path stroke="white" stroke-dasharray="1,2" d="M50 480l920 0"/>
<text stroke="none" fill="white" font-size="16" x="18" y="488">
1.4
</text>
<path stroke="white" stroke-dasharray="1,2" d="M50 432l920 0"/>
<text stroke="none" fill="white" font-size="16" x="18" y="440">
1.6
</text>
<path stroke="white" stroke-dasharray="1,2" d="M50 384l920 0"/>
<text stroke="none" fill="white" font-size="16" x="18" y="392">
1.8
</text>
<path stroke="white" stroke-dasharray="1,2" d="M50 336l920 0"/>
<text stroke="none" fill="white" font-size="16" x="18" y="344">
2.0
</text>
<path stroke="white" stroke-dasharray="1,2" d="M50 288l920 0"/>
<text stroke="none" fill="white" font-size="16" x="18" y="296">
2.2
</text>
<path stroke="white" stroke-dasharray="1,2" d="M50 240l920 0"/>
<text stroke="none" fill="white" font-size="16" x="18" y="248">
2.4
</text>
<path stroke="white" stroke-dasharray="1,2" d="M50 192l920 0"/>
<text stroke="none" fill="white" font-size="16" x="18" y="200">
2.6
</text>
<path stroke="white" stroke-dasharray="1,2" d="M50 144l920 0"/>
<text stroke="none" fill="white" font-size="16" x="18" y="152">
2.8
</text>
<path stroke="white" stroke-dasharray="1,2" d="M50 96l920 0"/>
<text stroke="none" fill="white" font-size="16" x="18" y="104">
3.0
</text>
<path stroke="white" stroke-dasharray="1,2" d="M50 48l920 0"/>
<text stroke="none" fill="white" font-size="16" x="18" y="56">
3.2
</text>
<text stroke="none" fill="white" font-size="16" x="10" y="32">
n     
</text>
<path stroke="red" d="M460 23l46 0"/>
<text stroke="none" fill="white" font-size="16" x="516" y="32">
v_period
</text>
<path stroke="red" d="M50 85l115 254 115 130 115 77 115 49 115 33 115 25 115 18 115 13"/>
</svg>
