<?xml version="1.0" standalone="yes"?>
<!DOCTYPE svg PUBLIC "-//W3C//DTD SVG 1.1//EN"
 "http://www.w3.org/Graphics/SVG/1.1/DTD/svg11.dtd">
<svg xmlns="http://www.w3.org/2000/svg" version="1.1"
  width="100%" height="100%" viewBox="0 0 1024 768"
  style="fill: none; font-family: Helvetica;
 font: Helvetica;
">

<!-- Creator: NGspice -->

<rect x="0" y="0" width="1024" height="768" fill="black" stroke="none"/>
<text stroke="none" fill="white" font-size="16" x="358" y="752">
v-sweep
</text>
<text stroke="none" fill="white" font-size="16" x="10" y="16">
dc1: ** sch_path: /home/ee24s053/ee5311-2025/tut1/untitled.sch
</text>
<path stroke="white" d="M70 720l0 -666"/>
<text stroke="none" fill="white" font-size="16" x="55" y="728">
0.0
</text>
<path stroke="white" stroke-dasharray="1,2" d="M168 720l0 -666"/>
<text stroke="none" fill="white" font-size="16" x="153" y="728">
0.2
</text>
<path stroke="white" stroke-dasharray="1,2" d="M266 720l0 -666"/>
<text stroke="none" fill="white" font-size="16" x="251" y="728">
0.4
</text>
<path stroke="white" stroke-dasharray="1,2" d="M364 720l0 -666"/>
<text stroke="none" fill="white" font-size="16" x="349" y="728">
0.6
</text>
<path stroke="white" stroke-dasharray="1,2" d="M462 720l0 -666"/>
<text stroke="none" fill="white" font-size="16" x="447" y="728">
0.8
</text>
<path stroke="white" stroke-dasharray="1,2" d="M560 720l0 -666"/>
<text stroke="none" fill="white" font-size="16" x="545" y="728">
1.0
</text>
<path stroke="white" stroke-dasharray="1,2" d="M658 720l0 -666"/>
<text stroke="none" fill="white" font-size="16" x="643" y="728">
1.2
</text>
<path stroke="white" stroke-dasharray="1,2" d="M756 720l0 -666"/>
<text stroke="none" fill="white" font-size="16" x="741" y="728">
1.4
</text>
<path stroke="white" stroke-dasharray="1,2" d="M854 720l0 -666"/>
<text stroke="none" fill="white" font-size="16" x="839" y="728">
1.6
</text>
<path stroke="white" stroke-dasharray="1,2" d="M952 720l0 -666"/>
<text stroke="none" fill="white" font-size="16" x="937" y="728">
1.8
</text>
<text stroke="none" fill="white" font-size="16" x="614" y="752">
V
</text>
<path stroke="white" d="M70 720l882 0"/>
<text stroke="none" fill="white" font-size="16" x="38" y="728">
0.0
</text>
<path stroke="white" stroke-dasharray="1,2" d="M70 646l882 0"/>
<text stroke="none" fill="white" font-size="16" x="28" y="654">
20.0
</text>
<path stroke="white" stroke-dasharray="1,2" d="M70 572l882 0"/>
<text stroke="none" fill="white" font-size="16" x="28" y="580">
40.0
</text>
<path stroke="white" stroke-dasharray="1,2" d="M70 498l882 0"/>
<text stroke="none" fill="white" font-size="16" x="28" y="506">
60.0
</text>
<path stroke="white" stroke-dasharray="1,2" d="M70 424l882 0"/>
<text stroke="none" fill="white" font-size="16" x="28" y="432">
80.0
</text>
<path stroke="white" stroke-dasharray="1,2" d="M70 350l882 0"/>
<text stroke="none" fill="white" font-size="16" x="18" y="358">
100.0
</text>
<path stroke="white" stroke-dasharray="1,2" d="M70 276l882 0"/>
<text stroke="none" fill="white" font-size="16" x="18" y="284">
120.0
</text>
<path stroke="white" stroke-dasharray="1,2" d="M70 202l882 0"/>
<text stroke="none" fill="white" font-size="16" x="18" y="210">
140.0
</text>
<path stroke="white" stroke-dasharray="1,2" d="M70 128l882 0"/>
<text stroke="none" fill="white" font-size="16" x="18" y="136">
160.0
</text>
<path stroke="white" stroke-dasharray="1,2" d="M70 54l882 0"/>
<text stroke="none" fill="white" font-size="16" x="18" y="62">
180.0
</text>
<text stroke="none" fill="white" font-size="16" x="10" y="32">
uA
</text>
<path stroke="red" d="M441 23l44 0"/>
<text stroke="none" fill="white" font-size="16" x="495" y="32">
-i(Vin1)
</text>
<path stroke="red" d="M70 720l299 0 5 -1 19 0 5 -1 5 0 5 -1 5 0 25 -5 4 -1 5 -1 25 -10 15 -9 4 -3 5 -3 10 -8 5 -3 5 -4 5 -5 5 -4 5 -5 5 -4 4 -5 15 -15 5 -6 10 -10 10 -12 5 -5 4 -6 25 -30 5 -7 15 -18 4 -7 5 -6 5 -7 5 -6 10 -14 5 -6 10 -14 5 -6"/>
<path stroke="red" d="M683 472l4 -7 15 -21 5 -6 25 -35 4 -7 20 -28 5 -8 20 -28 4 -7 5 -7 5 -8 20 -28 5 -8 10 -14 4 -8 15 -21 5 -8 10 -14 5 -8 10 -14 4 -8 10 -14 5 -8 10 -14 5 -8 10 -14 5 -8 4 -7 5 -7 5 -8 5 -7 5 -8"/>
</svg>
