<?xml version="1.0" standalone="yes"?>
<!DOCTYPE svg PUBLIC "-//W3C//DTD SVG 1.1//EN"
 "http://www.w3.org/Graphics/SVG/1.1/DTD/svg11.dtd">
<svg xmlns="http://www.w3.org/2000/svg" version="1.1"
  width="100%" height="100%" viewBox="0 0 1024 768"
  style="fill: none; font-family: Helvetica;
 font: Helvetica;
">

<!-- Creator: NGspice -->

<rect x="0" y="0" width="1024" height="768" fill="black" stroke="none"/>
<text stroke="none" fill="white" font-size="16" x="358" y="752">
v-sweep
</text>
<text stroke="none" fill="white" font-size="16" x="10" y="16">
dc4: ** sch_path: /home/ee24s053/ee5311-2025/tut1/tut1-expt2.sch
</text>
<path stroke="white" d="M70 720l0 -666"/>
<text stroke="none" fill="white" font-size="16" x="55" y="728">
0.0
</text>
<path stroke="white" stroke-dasharray="1,2" d="M168 720l0 -666"/>
<text stroke="none" fill="white" font-size="16" x="153" y="728">
0.2
</text>
<path stroke="white" stroke-dasharray="1,2" d="M266 720l0 -666"/>
<text stroke="none" fill="white" font-size="16" x="251" y="728">
0.4
</text>
<path stroke="white" stroke-dasharray="1,2" d="M364 720l0 -666"/>
<text stroke="none" fill="white" font-size="16" x="349" y="728">
0.6
</text>
<path stroke="white" stroke-dasharray="1,2" d="M462 720l0 -666"/>
<text stroke="none" fill="white" font-size="16" x="447" y="728">
0.8
</text>
<path stroke="white" stroke-dasharray="1,2" d="M560 720l0 -666"/>
<text stroke="none" fill="white" font-size="16" x="545" y="728">
1.0
</text>
<path stroke="white" stroke-dasharray="1,2" d="M658 720l0 -666"/>
<text stroke="none" fill="white" font-size="16" x="643" y="728">
1.2
</text>
<path stroke="white" stroke-dasharray="1,2" d="M756 720l0 -666"/>
<text stroke="none" fill="white" font-size="16" x="741" y="728">
1.4
</text>
<path stroke="white" stroke-dasharray="1,2" d="M854 720l0 -666"/>
<text stroke="none" fill="white" font-size="16" x="839" y="728">
1.6
</text>
<path stroke="white" stroke-dasharray="1,2" d="M952 720l0 -666"/>
<text stroke="none" fill="white" font-size="16" x="937" y="728">
1.8
</text>
<text stroke="none" fill="white" font-size="16" x="614" y="752">
V
</text>
<path stroke="white" d="M70 720l882 0"/>
<text stroke="none" fill="white" font-size="16" x="28" y="728">
-0.0
</text>
<path stroke="white" stroke-dasharray="1,2" d="M70 646l882 0"/>
<text stroke="none" fill="white" font-size="16" x="28" y="654">
20.0
</text>
<path stroke="white" stroke-dasharray="1,2" d="M70 572l882 0"/>
<text stroke="none" fill="white" font-size="16" x="28" y="580">
40.0
</text>
<path stroke="white" stroke-dasharray="1,2" d="M70 498l882 0"/>
<text stroke="none" fill="white" font-size="16" x="28" y="506">
60.0
</text>
<path stroke="white" stroke-dasharray="1,2" d="M70 424l882 0"/>
<text stroke="none" fill="white" font-size="16" x="28" y="432">
80.0
</text>
<path stroke="white" stroke-dasharray="1,2" d="M70 350l882 0"/>
<text stroke="none" fill="white" font-size="16" x="18" y="358">
100.0
</text>
<path stroke="white" stroke-dasharray="1,2" d="M70 276l882 0"/>
<text stroke="none" fill="white" font-size="16" x="18" y="284">
120.0
</text>
<path stroke="white" stroke-dasharray="1,2" d="M70 202l882 0"/>
<text stroke="none" fill="white" font-size="16" x="18" y="210">
140.0
</text>
<path stroke="white" stroke-dasharray="1,2" d="M70 128l882 0"/>
<text stroke="none" fill="white" font-size="16" x="18" y="136">
160.0
</text>
<path stroke="white" stroke-dasharray="1,2" d="M70 54l882 0"/>
<text stroke="none" fill="white" font-size="16" x="18" y="62">
180.0
</text>
<text stroke="none" fill="white" font-size="16" x="10" y="32">
u     
</text>
<path stroke="red" d="M441 23l44 0"/>
<text stroke="none" fill="white" font-size="16" x="495" y="32">
dc1.i(vdd1)*-1
</text>
<path stroke="red" d="M70 720l431 0 10 -1 441 0"/>
<path stroke="blue" d="M70 23l44 0"/>
<text stroke="none" fill="white" font-size="16" x="124" y="32">
dc2.i(vdd1)*-1
</text>
<path stroke="blue" d="M70 720l10 -10 10 -9 9 -8 10 -7 20 -12 10 -5 9 -3 20 -6 20 -4 9 -1 10 -1 10 -2 20 -2 9 -1 10 0 30 -3 9 -1 10 -1 10 0 20 -2 9 -1 10 0 20 -2 10 0 9 -1 20 -2 10 0 10 -1 9 -1 10 0 20 -2 10 0 9 -1 10 -1 10 0 20 -2 9 0 20 -2"/>
<path stroke="blue" d="M560 626l10 0 10 -1 9 -1 10 0 10 -1 10 0 10 -1 9 -1 10 0 20 -2 10 0 9 -1 10 -1 10 0 20 -2 9 0 10 -1 10 0 20 -2 9 0 20 -2 10 0 10 -1 9 -1 10 0 10 -1 10 0 10 -1 9 -1 10 0 20 -2 10 0 9 -1 10 0 10 -1"/>
<path stroke="#FFA500" d="M441 39l44 0"/>
<text stroke="none" fill="white" font-size="16" x="495" y="48">
dc3.i(vdd1)*-1
</text>
<path stroke="#FFA500" d="M70 720l10 -21 10 -20 9 -19 10 -19 10 -17 10 -18 10 -16 9 -15 10 -15 10 -14 20 -26 9 -12 20 -20 10 -9 10 -8 9 -7 10 -7 20 -10 10 -4 9 -3 30 -9 10 -2 9 -3 40 -8 9 -1 20 -4 10 -1 10 -2 9 -2 20 -2 10 -2 10 -1 9 -2 10 -1"/>
<path stroke="#FFA500" d="M501 400l10 -2 20 -2 9 -2 30 -3 10 -2 9 -1 20 -2 10 -2 10 -1 9 -1 10 -1 10 -2 20 -2 9 -1 10 -1 10 -2 20 -2 9 -1 20 -2 10 -2 10 -1 9 -1 40 -4 9 -2 40 -4 9 -1 20 -2 10 -2 10 -1 9 -1 20 -2"/>
<path stroke="green" d="M70 39l44 0"/>
<text stroke="none" fill="white" font-size="16" x="124" y="48">
dc4.i(vdd1)*-1
</text>
<path stroke="green" d="M70 720l20 -52 9 -25 10 -25 20 -48 10 -23 9 -23 10 -22 20 -42 10 -20 9 -19 20 -38 10 -18 10 -17 9 -16 10 -16 10 -15 20 -28 9 -12 10 -12 10 -11 20 -18 9 -8 30 -18 10 -5 9 -4 20 -8 10 -3 10 -4 9 -3 10 -2 20 -6 10 -2 9 -3"/>
<path stroke="green" d="M491 154l30 -6 10 -3 9 -2 30 -6 10 -1 9 -2 40 -8 9 -1 20 -4 10 -1 10 -2 9 -2 10 -1 10 -2 10 -1 10 -2 9 -1 20 -4 10 -1 10 -2 9 -1 10 -2 10 -1 10 -2 10 -1 9 -2 20 -2 10 -2 10 -1 9 -2 10 -1 10 -2 20 -2 9 -2 10 -1 10 -2"/>
</svg>
