<svg xmlns="http://www.w3.org/2000/svg" xmlns:xlink="http://www.w3.org/1999/xlink" width="1280" height="604" version="1.1">
<style type="text/css">
.l0{
  fill: #000000;
  stroke: #000000;
  stroke-linecap:round;
  stroke-linejoin:round;
  stroke-width: 0.887448;
}
.l1{
  fill: #00ccee;
  stroke: #00ccee;
  stroke-linecap:round;
  stroke-linejoin:round;
  stroke-width: 0.887448;
}
.l2{
  fill: #4f4f4f; fill-opacity: 0.2;
  stroke: #4f4f4f;
  stroke-linecap:round;
  stroke-linejoin:round;
  stroke-width: 0.887448;
}
.l3{
  fill: #cccccc; fill-opacity: 0.5;
  stroke: #cccccc;
  stroke-linecap:round;
  stroke-linejoin:round;
  stroke-width: 0.887448;
}
.l4{
  fill: #88dd00;
  stroke: #88dd00;
  stroke-linecap:round;
  stroke-linejoin:round;
  stroke-width: 0.887448;
}
.l5{
  fill: #bb2200;
  stroke: #bb2200;
  stroke-linecap:round;
  stroke-linejoin:round;
  stroke-width: 0.887448;
}
.l6{
  fill: #00ccee; fill-opacity: 0.5;
  stroke: #00ccee;
  stroke-linecap:round;
  stroke-linejoin:round;
  stroke-width: 0.887448;
}
.l7{
  fill: #ff0000; fill-opacity: 0.5;
  stroke: #ff0000;
  stroke-linecap:round;
  stroke-linejoin:round;
  stroke-width: 0.887448;
}
.l8{
  fill: #ffff00; fill-opacity: 0.5;
  stroke: #ffff00;
  stroke-linecap:round;
  stroke-linejoin:round;
  stroke-width: 0.887448;
}
.l9{
  fill: #ffffff; fill-opacity: 0.5;
  stroke: #ffffff;
  stroke-linecap:round;
  stroke-linejoin:round;
  stroke-width: 0.887448;
}
.l10{
  fill: #ff00ff;
  stroke: #ff00ff;
  stroke-linecap:round;
  stroke-linejoin:round;
  stroke-width: 0.887448;
}
.l11{
  fill: #00ff00; fill-opacity: 0.5;
  stroke: #00ff00;
  stroke-linecap:round;
  stroke-linejoin:round;
  stroke-width: 0.887448;
}
.l12{
  fill: #0000ff; fill-opacity: 0.5;
  stroke: #0000ff;
  stroke-linecap:round;
  stroke-linejoin:round;
  stroke-width: 0.887448;
}
.l13{
  fill: #aaaa00; fill-opacity: 0.5;
  stroke: #aaaa00;
  stroke-linecap:round;
  stroke-linejoin:round;
  stroke-width: 0.887448;
}
.l14{
  fill: #aaccaa; fill-opacity: 0.2;
  stroke: #aaccaa;
  stroke-linecap:round;
  stroke-linejoin:round;
  stroke-width: 0.887448;
}
.l15{
  fill: #ff7777; fill-opacity: 0.5;
  stroke: #ff7777;
  stroke-linecap:round;
  stroke-linejoin:round;
  stroke-width: 0.887448;
}
.l16{
  fill: #bfff81; fill-opacity: 0.5;
  stroke: #bfff81;
  stroke-linecap:round;
  stroke-linejoin:round;
  stroke-width: 0.887448;
}
.l17{
  fill: #00ffcc; fill-opacity: 0.2;
  stroke: #00ffcc;
  stroke-linecap:round;
  stroke-linejoin:round;
  stroke-width: 0.887448;
}
.l18{
  fill: #ce0097; fill-opacity: 0.5;
  stroke: #ce0097;
  stroke-linecap:round;
  stroke-linejoin:round;
  stroke-width: 0.887448;
}
.l19{
  fill: #d2d46b; fill-opacity: 0.2;
  stroke: #d2d46b;
  stroke-linecap:round;
  stroke-linejoin:round;
  stroke-width: 0.887448;
}
.l20{
  fill: #ef6158; fill-opacity: 0.2;
  stroke: #ef6158;
  stroke-linecap:round;
  stroke-linejoin:round;
  stroke-width: 0.887448;
}
.l21{
  fill: #fdb200; fill-opacity: 0.2;
  stroke: #fdb200;
  stroke-linecap:round;
  stroke-linejoin:round;
  stroke-width: 0.887448;
}
text {font-family: Sans-Serif;}
</style>
<rect class="l0" x="0" y="0" width="1280" height="604"/>
<text fill="#00ccee"  xml:space="preserve" font-size="8.5458" transform="translate(140.811, 137.611)" >GND</text>
<text fill="#00ccee"  xml:space="preserve" font-size="14.1006" transform="translate(138.353, 37.3731)" >Vin</text>
<text fill="#00ccee"  xml:space="preserve" font-size="14.1006" transform="translate(275.261, 29.156)" >Vout</text>
<text fill="#00ccee"  xml:space="preserve" font-size="8.5458" transform="translate(140.811, 244.434)" >GND</text>
<text fill="#00ccee"  xml:space="preserve" font-size="8.5458" transform="translate(124.376, 162.262)" >VDD</text>
<text fill="#cccccc"  xml:space="preserve" font-size="8.5458" transform="translate(151.082, 60.5757)" >Vin1</text>
<text fill="#cccccc"  xml:space="preserve" font-size="8.5458" transform="translate(151.082, 81.1185)" >PULSE(0 {vdd_val} 0ps 5ps 5ps 300ps 600ps)</text>
<text fill="#cccccc"  xml:space="preserve" font-size="8.5458" transform="translate(151.082, 200.267)" >Vdd1</text>
<text fill="#cccccc"  xml:space="preserve" font-size="8.5458" transform="translate(151.082, 220.809)" >{vdd_val}</text>
<text fill="#cccccc"  xml:space="preserve" font-size="12.8187" transform="translate(229.144, 141.491)" >Corner: tt</text>
<text fill="#cccccc"  xml:space="preserve" font-size="12.8187" transform="translate(483.875, 186.685)" >s1</text>
<text fill="#cccccc"  xml:space="preserve" font-size="12.8187" style="font-family:Monospace;" transform="translate(492.092, 221.931)" >.param wp = 0.84</text>
<text fill="#cccccc"  xml:space="preserve" font-size="12.8187" style="font-family:Monospace;" transform="translate(492.092, 236.634)" >.param vdd_val = 1.8</text>
<text fill="#cccccc"  xml:space="preserve" font-size="12.8187" style="font-family:Monospace;" transform="translate(492.092, 251.337)" >.control</text>
<text fill="#cccccc"  xml:space="preserve" font-size="12.8187" style="font-family:Monospace;" transform="translate(492.092, 266.04)" >let lv_sim = 9</text>
<text fill="#cccccc"  xml:space="preserve" font-size="12.8187" style="font-family:Monospace;" transform="translate(492.092, 280.743)" >let v_vdd = vector(lv_sim)</text>
<text fill="#cccccc"  xml:space="preserve" font-size="12.8187" style="font-family:Monospace;" transform="translate(492.092, 295.446)" >let v_dly = vector(lv_sim)</text>
<text fill="#cccccc"  xml:space="preserve" font-size="12.8187" style="font-family:Monospace;" transform="translate(492.092, 310.149)" >let v_edp = vector(lv_sim)</text>
<text fill="#cccccc"  xml:space="preserve" font-size="12.8187" style="font-family:Monospace;" transform="translate(492.092, 324.852)" >let lv_index = 0</text>
<text fill="#cccccc"  xml:space="preserve" font-size="12.8187" style="font-family:Monospace;" transform="translate(492.092, 339.555)" >while lv_index &lt; lv_sim</text>
<text fill="#cccccc"  xml:space="preserve" font-size="12.8187" style="font-family:Monospace;" transform="translate(492.092, 354.258)" >        let lv_vdd = 1.0 + (lv_index * 0.1)</text>
<text fill="#cccccc"  xml:space="preserve" font-size="12.8187" style="font-family:Monospace;" transform="translate(492.092, 368.961)" >        let lv_vhalf = lv_vdd / 2</text>
<text fill="#cccccc"  xml:space="preserve" font-size="12.8187" style="font-family:Monospace;" transform="translate(492.092, 383.664)" >        alterparam vdd_val = $&amp;lv_vdd</text>
<text fill="#cccccc"  xml:space="preserve" font-size="12.8187" style="font-family:Monospace;" transform="translate(492.092, 398.367)" >        reset</text>
<text fill="#cccccc"  xml:space="preserve" font-size="12.8187" style="font-family:Monospace;" transform="translate(492.092, 413.07)" >        tran 1p 600p</text>
<text fill="#cccccc"  xml:space="preserve" font-size="12.8187" style="font-family:Monospace;" transform="translate(492.092, 427.773)" >        meas tran thl trig v(Vin) val=$&amp;lv_vhalf rise=1 targ v(Vout) val=$&amp;lv_vhalf fall=1</text>
<text fill="#cccccc"  xml:space="preserve" font-size="12.8187" style="font-family:Monospace;" transform="translate(492.092, 442.476)" >        meas tran tlh trig v(Vin) val=$&amp;lv_vhalf fall=1 targ v(Vout) val=$&amp;lv_vhalf rise=1</text>
<text fill="#cccccc"  xml:space="preserve" font-size="12.8187" style="font-family:Monospace;" transform="translate(492.092, 457.179)" >        meas tran iinteg integ i(Vmeas)</text>
<text fill="#cccccc"  xml:space="preserve" font-size="12.8187" style="font-family:Monospace;" transform="translate(492.092, 471.883)" >        let v_dly[lv_index] = ($&amp;tlh + $&amp;thl)/2</text>
<text fill="#cccccc"  xml:space="preserve" font-size="12.8187" style="font-family:Monospace;" transform="translate(492.092, 486.586)" >        let v_vdd[lv_index] = lv_vdd</text>
<text fill="#cccccc"  xml:space="preserve" font-size="12.8187" style="font-family:Monospace;" transform="translate(492.092, 501.289)" >        let v_edp[lv_index] = $&amp;iinteg * lv_vdd * v_dly[lv_index]</text>
<text fill="#cccccc"  xml:space="preserve" font-size="12.8187" style="font-family:Monospace;" transform="translate(492.092, 515.992)" >        let lv_index = lv_index + 1</text>
<text fill="#cccccc"  xml:space="preserve" font-size="12.8187" style="font-family:Monospace;" transform="translate(492.092, 530.695)" >end</text>
<text fill="#cccccc"  xml:space="preserve" font-size="12.8187" style="font-family:Monospace;" transform="translate(492.092, 545.398)" >plot v_dly vs v_vdd</text>
<text fill="#cccccc"  xml:space="preserve" font-size="12.8187" style="font-family:Monospace;" transform="translate(492.092, 560.101)" >plot v_edp vs v_vdd</text>
<text fill="#cccccc"  xml:space="preserve" font-size="12.8187" style="font-family:Monospace;" transform="translate(492.092, 574.804)" >.endc</text>
<text fill="#cccccc"  xml:space="preserve" font-size="8.5458" transform="translate(270.23, 77.0099)" >Vmeas</text>
<text fill="#cccccc"  xml:space="preserve" font-size="12.8187" transform="translate(185.183, 99.5836)" >inv_nognd</text>
<text fill="#cccccc"  xml:space="preserve" font-size="8.5458" transform="translate(196.276, 16.8196)" >x1</text>
<text fill="#cccccc"  xml:space="preserve" font-size="8.5458" transform="translate(239.796, 31.6104)" >out</text>
<text fill="#cccccc"  xml:space="preserve" font-size="8.5458" transform="translate(204.493, 48.0446)" >in</text>
<text fill="#cccccc"  xml:space="preserve" font-size="8.5458" transform="translate(246.098, 80.913)" >supposed_gnd</text>
<text fill="#cccccc"  xml:space="preserve" font-size="12.8187" transform="translate(356.921, 83.1494)" >inv</text>
<text fill="#cccccc"  xml:space="preserve" font-size="8.5458" transform="translate(393.487, 25.0367)" >x2</text>
<text fill="#cccccc"  xml:space="preserve" font-size="8.5458" transform="translate(379.487, 48.0446)" >out</text>
<text fill="#cccccc"  xml:space="preserve" font-size="8.5458" transform="translate(360.618, 48.0446)" >in</text>
<path class="l4" d="M134.648 125.743L134.648 136.014"/>
<path class="l4" d="M130.539 136.014L138.756 136.014"/>
<path class="l4" d="M134.648 140.123L138.756 136.014"/>
<path class="l4" d="M130.539 136.014L134.648 140.123"/>
<path class="l4" d="M136.702 49.7347L140.811 49.7347"/>
<path class="l4" d="M138.756 47.6804L138.756 51.789"/>
<path class="l4" d="M134.648 43.5719L134.648 92.8745"/>
<circle class="l4" cx="134.648" cy="68.2232" r="12.3257" style="fill:none;" />
<path class="l4" d="M136.702 189.426L140.811 189.426"/>
<path class="l4" d="M138.756 187.371L138.756 191.48"/>
<path class="l4" d="M134.648 183.263L134.648 232.565"/>
<circle class="l4" cx="134.648" cy="207.914" r="12.3257" style="fill:none;" />
<path class="l4" d="M134.648 232.565L134.648 242.837"/>
<path class="l4" d="M130.539 242.837L138.756 242.837"/>
<path class="l4" d="M134.648 246.945L138.756 242.837"/>
<path class="l4" d="M130.539 242.837L134.648 246.945"/>
<path class="l4" d="M134.648 166.829L134.648 183.263"/>
<path class="l4" d="M126.431 166.829L142.865 166.829"/>
<path class="l4" d="M241.47 175.046L274.339 175.046"/>
<path class="l4" d="M241.47 183.263L257.904 183.263"/>
<path class="l4" d="M241.47 191.48L274.339 191.48"/>
<path class="l4" d="M241.47 199.697L266.121 199.697"/>
<path class="l4" d="M241.47 207.914L266.121 207.914"/>
<path class="l4" d="M241.47 216.131L298.99 216.131"/>
<path class="l4" d="M241.47 224.348L257.904 224.348"/>
<path class="l4" d="M241.47 166.829L282.556 166.829"/>
<path class="l4" d="M241.47 158.611L257.904 158.611"/>
<path class="l4" d="M307.207 158.611L315.424 158.611"/>
<path class="l4" d="M315.424 158.611L315.424 240.783"/>
<path class="l4" d="M241.47 240.783L315.424 240.783"/>
<path class="l4" d="M241.47 232.565L241.47 240.783"/>
<path class="l4" d="M307.207 150.394L307.207 232.565"/>
<path class="l4" d="M233.253 232.565L307.207 232.565"/>
<path class="l4" d="M233.253 150.394L233.253 232.565"/>
<path class="l4" d="M233.253 150.394L307.207 150.394"/>
<path class="l4" d="M479.766 191.48L537.286 191.48"/>
<path class="l4" d="M479.766 191.48L479.766 207.914"/>
<path class="l4" d="M257.904 60.0061L257.904 109.309"/>
<path class="l4" d="M251.742 84.6574L257.904 92.8745"/>
<path class="l4" d="M257.904 92.8745L264.067 84.6574"/>
<path class="l4" d="M200.385 35.3548L233.253 51.789"/>
<path class="l4" d="M200.385 68.2232L233.253 51.789"/>
<path class="l4" d="M200.385 35.3548L200.385 68.2232"/>
<path class="l4" d="M241.47 43.5719L257.904 43.5719"/>
<path class="l4" d="M183.95 43.5719L200.385 43.5719"/>
<circle class="l4" cx="237.362" cy="47.6804" r="5.81037" style="fill:none;" />
<path class="l4" d="M356.51 18.9205L405.812 43.5719"/>
<path class="l4" d="M356.51 68.2232L405.812 43.5719"/>
<path class="l4" d="M356.51 18.9205L356.51 68.2232"/>
<path class="l4" d="M430.464 43.5719L446.898 43.5719"/>
<path class="l4" d="M340.075 43.5719L356.51 43.5719"/>
<circle class="l4" cx="418.138" cy="43.5719" r="9.18701" style="fill:none;" />
<path class="l5" d="M132.593 123.689L136.702 123.689L136.702 127.797L132.593 127.797L132.593 123.689z"/>
<path class="l5" d="M132.593 41.5176L136.702 41.5176L136.702 45.6261L132.593 45.6261L132.593 41.5176z"/>
<path class="l5" d="M132.593 90.8203L136.702 90.8203L136.702 94.9288L132.593 94.9288L132.593 90.8203z"/>
<path class="l5" d="M166.489 30.2191L168.543 30.2191L168.543 32.2733L166.489 32.2733L166.489 30.2191z"/>
<path class="l5" d="M314.397 22.0019L316.451 22.0019L316.451 24.0562L314.397 24.0562L314.397 22.0019z"/>
<path class="l5" d="M132.593 181.208L136.702 181.208L136.702 185.317L132.593 185.317L132.593 181.208z"/>
<path class="l5" d="M132.593 230.511L136.702 230.511L136.702 234.62L132.593 234.62L132.593 230.511z"/>
<path class="l5" d="M132.593 230.511L136.702 230.511L136.702 234.62L132.593 234.62L132.593 230.511z"/>
<path class="l5" d="M132.593 181.208L136.702 181.208L136.702 185.317L132.593 185.317L132.593 181.208z"/>
<path class="l5" d="M255.85 57.9518L259.959 57.9518L259.959 62.0604L255.85 62.0604L255.85 57.9518z"/>
<path class="l5" d="M255.85 107.254L259.959 107.254L259.959 111.363L255.85 111.363L255.85 107.254z"/>
<path class="l5" d="M255.85 41.5176L259.959 41.5176L259.959 45.6261L255.85 45.6261L255.85 41.5176z"/>
<path class="l5" d="M181.896 41.5176L186.005 41.5176L186.005 45.6261L181.896 45.6261L181.896 41.5176z"/>
<path class="l5" d="M255.85 57.9518L259.959 57.9518L259.959 62.0604L255.85 62.0604L255.85 57.9518z"/>
<path class="l5" d="M444.844 41.5176L448.952 41.5176L448.952 45.6261L444.844 45.6261L444.844 41.5176z"/>
<path class="l5" d="M338.021 41.5176L342.13 41.5176L342.13 45.6261L338.021 45.6261L338.021 41.5176z"/>
<path class="l7" d="M241.47 60.0061L257.904 60.0061"/>
<path class="l1" d="M134.648 92.8745L134.648 125.743"/>
<path class="l1" d="M134.648 109.309L257.904 109.309"/>
<path class="l1" d="M134.648 43.5719L183.95 43.5719"/>
<path class="l1" d="M167.516 31.2462L167.516 43.5719"/>
<path class="l1" d="M257.904 43.5719L340.075 43.5719"/>
<path class="l1" d="M315.424 23.0291L315.424 43.5719"/>
<circle class="l1" cx="167.516" cy="43.5719" r="3.04033"/>
<circle class="l1" cx="134.648" cy="109.309" r="3.04033"/>
<circle class="l1" cx="315.424" cy="43.5719" r="3.04033"/>
</svg>
