<?xml version="1.0" standalone="yes"?>
<!DOCTYPE svg PUBLIC "-//W3C//DTD SVG 1.1//EN"
 "http://www.w3.org/Graphics/SVG/1.1/DTD/svg11.dtd">
<svg xmlns="http://www.w3.org/2000/svg" version="1.1"
  width="100%" height="100%" viewBox="0 0 1024 768"
  style="fill: none; font-family: Helvetica;
 font: Helvetica;
">

<!-- Creator: NGspice -->

<rect x="0" y="0" width="1024" height="768" fill="black" stroke="none"/>
<text stroke="none" fill="white" font-size="16" x="358" y="752">
time
</text>
<text stroke="none" fill="white" font-size="16" x="10" y="16">
tran3: ** sch_path: /home/ee24s053/ee5311-2025/tut3/expt1_a/expt1_a.sch
</text>
<path stroke="white" d="M50 720l0 -663"/>
<text stroke="none" fill="white" font-size="16" x="35" y="728">
0.0
</text>
<path stroke="white" stroke-dasharray="1,2" d="M234 720l0 -663"/>
<text stroke="none" fill="white" font-size="16" x="214" y="728">
50.0
</text>
<path stroke="white" stroke-dasharray="1,2" d="M418 720l0 -663"/>
<text stroke="none" fill="white" font-size="16" x="393" y="728">
100.0
</text>
<path stroke="white" stroke-dasharray="1,2" d="M602 720l0 -663"/>
<text stroke="none" fill="white" font-size="16" x="577" y="728">
150.0
</text>
<path stroke="white" stroke-dasharray="1,2" d="M786 720l0 -663"/>
<text stroke="none" fill="white" font-size="16" x="761" y="728">
200.0
</text>
<path stroke="white" stroke-dasharray="1,2" d="M970 720l0 -663"/>
<text stroke="none" fill="white" font-size="16" x="945" y="728">
250.0
</text>
<text stroke="none" fill="white" font-size="16" x="614" y="752">
ps
</text>
<path stroke="white" stroke-dasharray="1,2" d="M50 720l920 0"/>
<text stroke="none" fill="white" font-size="16" x="8" y="728">
-0.4
</text>
<path stroke="white" stroke-dasharray="1,2" d="M50 669l920 0"/>
<text stroke="none" fill="white" font-size="16" x="8" y="677">
-0.2
</text>
<path stroke="white" d="M50 618l920 0"/>
<text stroke="none" fill="white" font-size="16" x="18" y="626">
0.0
</text>
<path stroke="white" stroke-dasharray="1,2" d="M50 567l920 0"/>
<text stroke="none" fill="white" font-size="16" x="18" y="575">
0.2
</text>
<path stroke="white" stroke-dasharray="1,2" d="M50 516l920 0"/>
<text stroke="none" fill="white" font-size="16" x="18" y="524">
0.4
</text>
<path stroke="white" stroke-dasharray="1,2" d="M50 465l920 0"/>
<text stroke="none" fill="white" font-size="16" x="18" y="473">
0.6
</text>
<path stroke="white" stroke-dasharray="1,2" d="M50 414l920 0"/>
<text stroke="none" fill="white" font-size="16" x="18" y="422">
0.8
</text>
<path stroke="white" stroke-dasharray="1,2" d="M50 363l920 0"/>
<text stroke="none" fill="white" font-size="16" x="18" y="371">
1.0
</text>
<path stroke="white" stroke-dasharray="1,2" d="M50 312l920 0"/>
<text stroke="none" fill="white" font-size="16" x="18" y="320">
1.2
</text>
<path stroke="white" stroke-dasharray="1,2" d="M50 261l920 0"/>
<text stroke="none" fill="white" font-size="16" x="18" y="269">
1.4
</text>
<path stroke="white" stroke-dasharray="1,2" d="M50 210l920 0"/>
<text stroke="none" fill="white" font-size="16" x="18" y="218">
1.6
</text>
<path stroke="white" stroke-dasharray="1,2" d="M50 159l920 0"/>
<text stroke="none" fill="white" font-size="16" x="18" y="167">
1.8
</text>
<path stroke="white" stroke-dasharray="1,2" d="M50 108l920 0"/>
<text stroke="none" fill="white" font-size="16" x="18" y="116">
2.0
</text>
<path stroke="white" stroke-dasharray="1,2" d="M50 57l920 0"/>
<text stroke="none" fill="white" font-size="16" x="18" y="65">
2.2
</text>
<text stroke="none" fill="white" font-size="16" x="10" y="32">
V
</text>
<path stroke="red" d="M460 23l46 0"/>
<text stroke="none" fill="white" font-size="16" x="516" y="32">
v(vout)
</text>
<path stroke="red" d="M50 159l37 0 0 -2 1 -1 0 -4 1 -1 0 -2 1 -2 0 -4 1 -3 0 -4 1 -2 0 -2 1 -3 0 -4 1 -3 0 -5 1 -2 0 -5 1 -2 0 -2 1 -2 0 -4 1 -2 0 -3 1 -2 0 -2 1 -1 0 -1 1 -1 0 -1 3 0M104 88l0 -1M104 88l1 1M105 92l0 -3M105 92l1 2M106 100l0 -6"/>
<path stroke="red" d="M106 100l1 3M107 106l0 -3M107 106l1 3M108 115l0 -6M108 115l1 3M109 124l0 -6M109 124l1 3M110 130l0 -3M110 130l1 4M111 140l0 -6M111 140l1 3M112 149l0 -6M112 149l1 3M113 158l0 -6M113 158l1 3M114 164l0 -3M114 164l1 3M115 173l0 -6"/>
<path stroke="red" d="M115 173l1 3M116 182l0 -6M116 182l1 3M117 188l0 -3M117 188l1 3M118 197l0 -6M118 197l1 3M119 206l0 -6M119 206l1 3M120 214l0 -5M120 214l1 3M121 220l0 -3M121 220l1 3M122 229l0 -6M122 229l1 3M123 238l0 -6M123 238l1 3M124 244l0 -3"/>
<path stroke="red" d="M124 244l1 2M125 252l0 -6M125 252l1 3M126 261l0 -6M126 261l1 2M127 269l0 -6M127 269l1 3M128 275l0 -3M128 275l1 2M129 283l0 -6M129 283l1 3M130 291l0 -5M130 291l1 3M131 297l0 -3M131 297l1 2M132 305l0 -6M132 305l1 2M133 313l0 -6"/>
<path stroke="red" d="M133 313l1 2M134 321l0 -6M134 321l1 2M135 326l0 -3M135 326l1 3M136 334l0 -5M136 334l1 3M137 342l0 -5M137 342l1 2M138 347l0 -3M138 347l1 3M139 355l0 -5M139 355l1 2M140 363l0 -6M140 363l1 2M141 370l0 -5M141 370l1 3M142 375l0 -2"/>
<path stroke="red" d="M142 375l1 3M143 383l0 -5M143 383l1 3M144 391l0 -5M144 391l1 2M145 398l0 -5M145 398l1 3M146 403l0 -2M146 403l1 3M147 411l0 -5M147 411l1 2M148 419l0 -6M148 419l1 2M149 424l0 -3M149 424l1 2M150 431l0 -5M150 431l1 3M151 439l0 -5"/>
<path stroke="red" d="M151 439l1 2M152 446l0 -5M152 446l1 2M153 451l0 -3M153 451l1 2M154 458l0 -5M154 458l1 2M155 465l0 -5M155 465l1 2M156 470l0 -3M156 470l1 2M157 477l0 -5M157 477l1 2M158 483l0 -4M158 483l1 2M159 490l0 -5M159 490l1 2M160 494l0 -2"/>
<path stroke="red" d="M160 494l1 2M161 500l0 -4M161 500l1 2M162 506l0 -4M162 506l1 2M163 510l0 -2M163 510l1 2M164 515l0 -3M164 515l1 2M165 521l0 -4M165 521l1 2M166 526l0 -3M166 526l1 2M167 529l0 -1M167 529l1 2M168 534l0 -3M168 534l1 2M169 539l0 -3"/>
<path stroke="red" d="M169 539l1 1M170 542l0 -2M170 542l1 1M171 546l0 -3M171 546l1 1M172 550l0 -3M172 550l1 1M173 554l0 -3M173 554l1 1M174 556l0 -1M174 556l1 1M175 560l0 -3M175 560l1 1M176 563l0 -2M176 563l1 1M177 565l0 -1M177 565l1 1M178 568l0 -2"/>
<path stroke="red" d="M178 568l1 1M179 571l0 -2M179 571l1 1M180 573l0 -1M180 573l1 1M181 575l0 -1M181 575l1 1M182 577l0 -1M182 577l1 1M183 580l0 -2M183 580l1 0M184 581l0 -1M184 581l1 1M185 583l0 -1M185 583l1 0M186 585l0 -2M186 585l1 0M187 586l0 -1"/>
<path stroke="red" d="M187 586l2 2M189 589l0 -1M189 589l1 0M190 590l0 -1M190 590l1 1M191 592l0 -1M191 592l1 0 1 1M193 594l0 -1M193 594l1 0M194 595l0 -1M194 595l1 0 3 3 1 0M199 599l0 -1M199 599l1 0 1 1 1 0 1 1 1 0M204 602l0 -1M204 602l2 0M206 603l0 -1"/>
<path stroke="red" d="M206 603l2 0M208 604l0 -1M208 604l3 0M211 605l0 -1M211 605l4 0M215 606l0 -1M215 606l6 0M221 607l0 -1M221 607l9 0 1 1 7 0 1 1 6 0 1 1 5 0 1 1 6 0M258 612l0 -1M258 612l7 0M265 613l0 -1M265 613l8 0M273 614l0 -1M273 614l9 0"/>
<path stroke="red" d="M282 615l0 -1M282 615l11 0M293 616l0 -1M293 616l17 0M310 617l0 -1M310 617l34 0M344 618l0 -1M344 618l129 0M473 619l0 -1M473 619l1 1M474 623l0 -3M474 623l1 2M475 627l0 -2M475 627l1 2M476 633l0 -4M476 633l1 2M477 639l0 -4M477 639l1 1"/>
<path stroke="red" d="M478 642l0 -2M478 642l1 2M479 648l0 -4M479 648l1 2M480 654l0 -4M480 654l1 2M481 660l0 -4M481 660l1 2M482 664l0 -2M482 664l1 2M483 670l0 -4M483 670l1 2M484 675l0 -3M484 675l1 2M485 679l0 -2M485 679l1 2M486 684l0 -3M486 684l1 2"/>
<path stroke="red" d="M487 689l0 -3M487 689l1 2M488 693l0 -2M488 693l1 1M489 696l0 -2M489 696l1 1M490 698l0 -1M490 698l1 1M491 700l0 -1M491 700l1 1 0 -1 1 -1 0 -3 1 -1 0 -3 1 -2 0 -3 1 -1 0 -2 1 -1 0 -3 1 -2 0 -3 1 -2 0 -1 1 -2 0 -3 1 -2 0 -3"/>
<path stroke="red" d="M501 662l1 -1 0 -3 1 -2 0 -2 1 -1 0 -3 1 -2 0 -3 1 -2 0 -1 1 -2 0 -3 1 -1 0 -3 1 -2 0 -3 1 -1 0 -2 1 -2 0 -3 1 -1 0 -3 1 -2 0 -3 1 -1 0 -2 1 -1 0 -3 1 -1 0 -3 1 -2 0 -1 1 -2 0 -3 1 -1 0 -3 1 -2 0 -2 1 -2 0 -1 1 -2 0 -3 1 -1"/>
<path stroke="red" d="M523 575l0 -3 1 -1 0 -2 1 -1 0 -3 1 -1 0 -3 1 -2 0 -2 1 -2 0 -1 1 -2 0 -2 1 -2 0 -3 1 -1 0 -1 1 -2 0 -2 1 -2 0 -3 1 -1 0 -3 1 -1 0 -1 1 -2 0 -2 1 -2 0 -2 1 -2 0 -1 1 -1 0 -3 1 -1 0 -3 1 -1 0 -3 1 -1 0 -2 1 -1 0 -3 1 -1 0 -3"/>
<path stroke="red" d="M544 494l1 -1 0 -1 1 -1 0 -3 1 -1 0 -3 1 -1 0 -3 1 -1 0 -1 1 -1 0 -3 1 -1 0 -3 1 -1 0 -1 1 -1 0 -3 1 -1 0 -3 1 -1 0 -2 1 -1 0 -2 1 -1 0 -2 1 -2 0 -2 1 -1 0 -2 1 -2 0 -1 1 -1 0 -2 1 -2 0 -2 1 -1 0 -1 1 -1 0 -3 1 -1 0 -2 1 -1"/>
<path stroke="red" d="M566 424l0 -2 1 -1 0 -2 1 -1 0 -2 1 -1 0 -2 1 -1 0 -1 1 -1 0 -2 1 -1 0 -3 1 -1 0 -2 1 -1 0 -1 1 -1 0 -2 1 -1 0 -2 1 -1 0 -1 1 -1 0 -2 1 -1 0 -1 1 -1 0 -2 1 -1 0 -1 1 -1 0 -2 1 -1 0 -1 1 -1 0 -1 1 -1 0 -2 1 -1 0 -1 1 -1 0 -2"/>
<path stroke="red" d="M587 366l1 -1 0 -1 1 0 0 -2 1 -1 0 -1 1 -1 0 -1 1 -1 0 -1 1 -1 0 -2 1 0 0 -2 2 -2 0 -1 1 -1 0 -2 1 0 0 -1 1 -1 0 -1 1 -1 0 -1 1 -1 0 -1 1 -1 0 -1 1 -1 0 -1 1 -1 0 -1 1 -1 0 -1 1 -1 0 -1 1 0 0 -2 1 0 0 -2 2 -2 0 -2 1 0 0 -2"/>
<path stroke="red" d="M611 318l1 0 0 -2 2 -2 0 -1 1 -1 0 -1 1 -1 0 -1 1 0 0 -2 1 0 0 -2 1 0 0 -2 1 0 0 -1 1 0 0 -2 1 0 0 -1 1 -1 0 -1 1 0 0 -1 1 -1 0 -1 1 -1 0 -1 1 0 0 -1 1 0 0 -1 1 -1 0 -1 1 0 0 -1 1 -1 0 -1 1 0 0 -1 3 -3 0 -1 1 0 0 -1 3 -3"/>
<path stroke="red" d="M639 276l0 -1 1 0 0 -1 1 -1 1 0 0 -1 3 -3 0 -1 1 0 0 -1 1 0 0 -1 1 0 0 -1 1 0 0 -1 1 0 0 -1 1 0 0 -1 1 0 1 -1 1 0 0 -1 1 0 0 -1 1 0 0 -1 1 0 0 -1 1 0 0 -1 1 0 5 -5 0 -1 1 0 0 -1 1 0 0 -1 1 0 0 -1 1 0 0 -1 1 0 0 -1 1 0 0 -1"/>
<path stroke="red" d="M670 244l2 -2 0 -1 1 0 1 -1 0 -1 1 0 0 -1 1 0 0 -1 1 0 0 -1 2 -2 0 -1 1 0 1 -1 0 -1 1 0 0 -1 1 0 0 -1 1 0 0 -1 1 0 0 -1 2 -2 1 0 0 -1 10 -10 1 0 0 -1 1 0 0 -1 1 0 0 -1 1 0 0 -1 1 0 2 -2 1 0 0 -1 1 0 0 -1 1 0 2 -2 1 0 0 -1"/>
<path stroke="red" d="M711 203l1 0 0 -1 1 0 1 -1 1 0 0 -1 1 0 1 -1 1 0 0 -1 1 0 1 -1 1 0 0 -1 1 0 1 -1 1 0 0 -1 1 0 1 -1 1 0 1 -1 1 0 0 -1 2 0 0 -1 1 0 1 -1 1 0 1 -1 2 0 0 -1 1 0 1 -1 2 0 0 -1 2 0 0 -1 2 0 0 -1 3 0 0 -1 2 0 0 -1 2 0 1 -1 2 0"/>
<path stroke="red" d="M755 180l0 -1 3 0 0 -1 3 0 0 -1 3 0 0 -1 3 0 1 -1 3 0 0 -1 3 0 1 -1 3 0 1 -1 4 0 0 -1 4 0 1 -1 4 0 1 -1 5 0 0 -1 6 0 1 -1 6 0 0 -1 8 0 0 -1 9 0 1 -1 10 0 1 -1 13 0 0 -1 18 0 1 -1 27 0 1 -1 59 0 1 -1 10 0"/>
<path stroke="blue" d="M50 23l46 0"/>
<text stroke="none" fill="white" font-size="16" x="106" y="32">
v(vin)
</text>
<path stroke="blue" d="M50 618l37 0 0 -14 1 -9 0 -18 1 -9 0 -10 1 -9 0 -18 1 -9 0 -19 1 -9 0 -9 1 -9 0 -19 1 -9 0 -18 1 -9 0 -19 1 -9 0 -9 1 -9 0 -19 1 -9 0 -18 1 -9 0 -19 1 -9 0 -9 1 -9 0 -19 1 -9 0 -18 1 -9 0 -10 1 -9 0 -18 1 -9 0 -14 368 0"/>
<path stroke="blue" d="M473 165l0 -6M473 165l1 8M474 191l0 -18M474 191l1 9M475 209l0 -9M475 209l1 10M476 237l0 -18M476 237l1 9M477 265l0 -19M477 265l1 9M478 283l0 -9M478 283l1 9M479 310l0 -18M479 310l1 10M480 338l0 -18M480 338l1 9M481 366l0 -19"/>
<path stroke="blue" d="M481 366l1 9M482 384l0 -9M482 384l1 9M483 411l0 -18M483 411l1 10M484 439l0 -18M484 439l1 9M485 457l0 -9M485 457l1 10M486 485l0 -18M486 485l1 9M487 512l0 -18M487 512l1 10M488 540l0 -18M488 540l1 9M489 558l0 -9M489 558l1 10"/>
<path stroke="blue" d="M490 586l0 -18M490 586l1 9M491 613l0 -18M491 613l1 5 478 0"/>
</svg>
